<svg width="30" height="26" viewBox="0 0 30 26" fill="none" xmlns="http://www.w3.org/2000/svg">
<path d="M29.7137 22.8966L16.829 1.03446C16.4473 0.386704 15.7635 0 15 0C14.2365 0 13.5527 0.386704 13.171 1.03446L0.286348 22.8966C-0.0954492 23.5444 -0.0954492 24.3178 0.286348 24.9655C0.668086 25.6133 1.35182 26 2.11535 26H27.8846C28.6482 26 29.3319 25.6133 29.7137 24.9655C30.0954 24.3178 30.0954 23.5444 29.7137 22.8966ZM28.1895 24.1035C28.1516 24.1679 28.0614 24.2759 27.8847 24.2759H2.11535C1.93852 24.2759 1.8484 24.168 1.81055 24.1035C1.77264 24.0392 1.72213 23.9087 1.81055 23.7587L14.6951 1.89649C14.7836 1.74651 14.9241 1.72407 14.9999 1.72407C15.0759 1.72407 15.2164 1.74645 15.3047 1.89649L28.1895 23.7587C28.2779 23.9087 28.2274 24.0392 28.1895 24.1035Z" fill="white"/>
<path d="M15.8803 7.83946H14.1203V17.0348H15.8803V7.83946Z" fill="white"/>
<path d="M15.0003 21.0577C15.6483 21.0577 16.1736 20.5431 16.1736 19.9083C16.1736 19.2735 15.6483 18.7589 15.0003 18.7589C14.3523 18.7589 13.827 19.2735 13.827 19.9083C13.827 20.5431 14.3523 21.0577 15.0003 21.0577Z" fill="white"/>
</svg>
