<svg width="19" height="28" viewBox="0 0 19 28" fill="none" xmlns="http://www.w3.org/2000/svg">
<path d="M9.49998 1C4.81333 1 1 4.88806 1 9.66667C1 11.9666 2.4131 13.9025 3.65941 15.612C3.87297 15.9045 4.08439 16.1937 4.2863 16.4819C4.67412 17.0333 4.93759 17.6476 5.09168 18.3582C5.36581 19.6192 6.40597 20.5 7.6215 20.5H11.3785C12.594 20.5 13.6342 19.6203 13.9083 18.3582C14.0624 17.6475 14.3259 17.0344 14.7137 16.4819C14.9156 16.1937 15.127 15.9045 15.3406 15.612C16.5869 13.9025 18 11.9665 18 9.66667C18 4.88806 14.1866 1 9.49998 1ZM14.4873 14.9652C14.2695 15.2632 14.0549 15.5578 13.8488 15.8514C13.3824 16.5166 13.053 17.2803 12.8702 18.1242C12.7055 18.8858 12.0914 19.4166 11.3785 19.4166H7.6215C6.90855 19.4166 6.29446 18.8858 6.12976 18.1242C5.94703 17.2792 5.61657 16.5155 5.1512 15.8514C4.94506 15.5589 4.73045 15.2632 4.51266 14.9652C3.30779 13.3142 2.06253 11.608 2.06253 9.66667C2.06253 5.48611 5.39878 2.08337 9.49998 2.08337C13.6012 2.08337 16.9374 5.48611 16.9374 9.66667C16.9374 11.608 15.6922 13.3142 14.4873 14.9652Z" fill="white"/>
<path d="M12.1562 21.5833H6.84376C6.55051 21.5833 6.31249 21.826 6.31249 22.125C6.31249 22.424 6.55051 22.6666 6.84376 22.6666H12.1562C12.4495 22.6666 12.6875 22.424 12.6875 22.125C12.6875 21.826 12.4494 21.5833 12.1562 21.5833Z" fill="white"/>
<path d="M12.1562 23.75H6.84376C6.55051 23.75 6.31249 23.9926 6.31249 24.2916C6.31249 24.5906 6.55051 24.8333 6.84376 24.8333H12.1562C12.4495 24.8333 12.6875 24.5906 12.6875 24.2916C12.6875 23.9926 12.4494 23.75 12.1562 23.75Z" fill="white"/>
<path d="M11.0937 25.9166H7.90623C7.61298 25.9166 7.37497 26.1593 7.37497 26.4583C7.37497 26.7573 7.61298 27 7.90623 27H11.0937C11.387 27 11.625 26.7573 11.625 26.4583C11.625 26.1593 11.387 25.9166 11.0937 25.9166Z" fill="white"/>
<path d="M9.49998 1C4.81333 1 1 4.88806 1 9.66667C1 11.9666 2.4131 13.9025 3.65941 15.612C3.87297 15.9045 4.08439 16.1937 4.2863 16.4819C4.67412 17.0333 4.93759 17.6476 5.09168 18.3582C5.36581 19.6192 6.40597 20.5 7.6215 20.5H11.3785C12.594 20.5 13.6342 19.6203 13.9083 18.3582C14.0624 17.6475 14.3259 17.0344 14.7137 16.4819C14.9156 16.1937 15.127 15.9045 15.3406 15.612C16.5869 13.9025 18 11.9665 18 9.66667C18 4.88806 14.1866 1 9.49998 1ZM14.4873 14.9652C14.2695 15.2632 14.0549 15.5578 13.8488 15.8514C13.3824 16.5166 13.053 17.2803 12.8702 18.1242C12.7055 18.8858 12.0914 19.4166 11.3785 19.4166H7.6215C6.90855 19.4166 6.29446 18.8858 6.12976 18.1242C5.94703 17.2792 5.61657 16.5155 5.1512 15.8514C4.94506 15.5589 4.73045 15.2632 4.51266 14.9652C3.30779 13.3142 2.06253 11.608 2.06253 9.66667C2.06253 5.48611 5.39878 2.08337 9.49998 2.08337C13.6012 2.08337 16.9374 5.48611 16.9374 9.66667C16.9374 11.608 15.6922 13.3142 14.4873 14.9652Z" stroke="white" stroke-width="0.5"/>
<path d="M12.1562 21.5833H6.84376C6.55051 21.5833 6.31249 21.826 6.31249 22.125C6.31249 22.424 6.55051 22.6666 6.84376 22.6666H12.1562C12.4495 22.6666 12.6875 22.424 12.6875 22.125C12.6875 21.826 12.4494 21.5833 12.1562 21.5833Z" stroke="white" stroke-width="0.5"/>
<path d="M12.1562 23.75H6.84376C6.55051 23.75 6.31249 23.9926 6.31249 24.2916C6.31249 24.5906 6.55051 24.8333 6.84376 24.8333H12.1562C12.4495 24.8333 12.6875 24.5906 12.6875 24.2916C12.6875 23.9926 12.4494 23.75 12.1562 23.75Z" stroke="white" stroke-width="0.5"/>
<path d="M11.0937 25.9166H7.90623C7.61298 25.9166 7.37497 26.1593 7.37497 26.4583C7.37497 26.7573 7.61298 27 7.90623 27H11.0937C11.387 27 11.625 26.7573 11.625 26.4583C11.625 26.1593 11.387 25.9166 11.0937 25.9166Z" stroke="white" stroke-width="0.5"/>
</svg>
