<svg width="28" height="28" viewBox="0 0 28 28" fill="none" xmlns="http://www.w3.org/2000/svg">
<path d="M26.8979 24.545L25.113 19.3505C25.9715 17.6151 26.4255 15.6808 26.4286 13.7344C26.4338 10.3828 25.137 7.21356 22.7769 4.81079C20.4166 2.40757 17.2712 1.05486 13.9204 1.00169C12.1648 0.973511 10.4613 1.29699 8.85456 1.96207C7.30486 2.60359 5.91512 3.53283 4.72399 4.72396C3.53281 5.91508 2.60355 7.30481 1.96208 8.8545C1.297 10.4612 0.973872 12.1656 1.00165 13.9203C1.05472 17.2711 2.40749 20.4164 4.81072 22.7768C7.20883 25.1322 10.3699 26.4286 13.7144 26.4286C13.7209 26.4286 13.7278 26.4286 13.7344 26.4286C15.6807 26.4255 17.615 25.9715 19.3505 25.113L24.5451 26.8979C24.7449 26.9665 24.9496 27 25.1521 27C25.6332 27 26.1012 26.811 26.4561 26.456C26.9603 25.9518 27.1297 25.2196 26.8979 24.545ZM25.3661 25.3661C25.3149 25.4172 25.2055 25.4948 25.046 25.4401L19.5415 23.5487C19.4601 23.5207 19.3755 23.5068 19.2911 23.5068C19.1667 23.5068 19.0428 23.5369 18.9306 23.5963C17.3398 24.4379 15.5421 24.8843 13.7319 24.887C7.66099 24.8968 2.6391 19.9658 2.54292 13.8959C2.49453 10.8419 3.6562 7.97172 5.81396 5.81398C7.97172 3.65628 10.8411 2.49481 13.8959 2.54311C19.9658 2.63934 24.8965 7.65871 24.887 13.732C24.8842 15.5423 24.4378 17.3399 23.5963 18.9307C23.4967 19.119 23.4794 19.3401 23.5487 19.5416L25.4401 25.0459C25.4949 25.2053 25.4173 25.315 25.3661 25.3661Z" fill="#D99A6C"/>
<path d="M13.5891 19.4208C13.186 19.4208 12.7997 19.7753 12.8184 20.1916C12.8371 20.6091 13.157 20.9623 13.5891 20.9623C13.9923 20.9623 14.3785 20.6078 14.3599 20.1916C14.3412 19.7739 14.0212 19.4208 13.5891 19.4208Z" fill="#D99A6C"/>
<path d="M13.5891 7.48346C11.4746 7.48346 9.75436 9.20372 9.75436 11.3182C9.75436 11.7439 10.0995 12.089 10.5251 12.089C10.9508 12.089 11.2959 11.7439 11.2959 11.3182C11.2959 10.0538 12.3247 9.02497 13.5891 9.02497C14.8536 9.02497 15.8824 10.0538 15.8824 11.3182C15.8824 12.5827 14.8536 13.6114 13.5891 13.6114C13.1635 13.6114 12.8184 13.9565 12.8184 14.3822V17.5258C12.8184 17.9514 13.1635 18.2966 13.5891 18.2966C14.0148 18.2966 14.3599 17.9515 14.3599 17.5257V15.0751C16.1062 14.7173 17.4239 13.1688 17.4239 11.3182C17.4239 9.20372 15.7036 7.48346 13.5891 7.48346Z" fill="#D99A6C"/>
<path d="M26.8979 24.545L25.113 19.3505C25.9715 17.6151 26.4255 15.6808 26.4286 13.7344C26.4338 10.3828 25.137 7.21356 22.7769 4.81079C20.4166 2.40757 17.2712 1.05486 13.9204 1.00169C12.1648 0.973511 10.4613 1.29699 8.85456 1.96207C7.30486 2.60359 5.91512 3.53283 4.72399 4.72396C3.53281 5.91508 2.60355 7.30481 1.96208 8.8545C1.297 10.4612 0.973872 12.1656 1.00165 13.9203C1.05472 17.2711 2.40749 20.4164 4.81072 22.7768C7.20883 25.1322 10.3699 26.4286 13.7144 26.4286C13.7209 26.4286 13.7278 26.4286 13.7344 26.4286C15.6807 26.4255 17.615 25.9715 19.3505 25.113L24.5451 26.8979C24.7449 26.9665 24.9496 27 25.1521 27C25.6332 27 26.1012 26.811 26.4561 26.456C26.9603 25.9518 27.1297 25.2196 26.8979 24.545ZM25.3661 25.3661C25.3149 25.4172 25.2055 25.4948 25.046 25.4401L19.5415 23.5487C19.4601 23.5207 19.3755 23.5068 19.2911 23.5068C19.1667 23.5068 19.0428 23.5369 18.9306 23.5963C17.3398 24.4379 15.5421 24.8843 13.7319 24.887C7.66099 24.8968 2.6391 19.9658 2.54292 13.8959C2.49453 10.8419 3.6562 7.97172 5.81396 5.81398C7.97172 3.65628 10.8411 2.49481 13.8959 2.54311C19.9658 2.63934 24.8965 7.65871 24.887 13.732C24.8842 15.5423 24.4378 17.3399 23.5963 18.9307C23.4967 19.119 23.4794 19.3401 23.5487 19.5416L25.4401 25.0459C25.4949 25.2053 25.4173 25.315 25.3661 25.3661Z" stroke="#D99A6C" stroke-width="0.2"/>
<path d="M13.5891 19.4208C13.186 19.4208 12.7997 19.7753 12.8184 20.1916C12.8371 20.6091 13.157 20.9623 13.5891 20.9623C13.9923 20.9623 14.3785 20.6078 14.3599 20.1916C14.3412 19.7739 14.0212 19.4208 13.5891 19.4208Z" stroke="#D99A6C" stroke-width="0.2"/>
<path d="M13.5891 7.48346C11.4746 7.48346 9.75436 9.20372 9.75436 11.3182C9.75436 11.7439 10.0995 12.089 10.5251 12.089C10.9508 12.089 11.2959 11.7439 11.2959 11.3182C11.2959 10.0538 12.3247 9.02497 13.5891 9.02497C14.8536 9.02497 15.8824 10.0538 15.8824 11.3182C15.8824 12.5827 14.8536 13.6114 13.5891 13.6114C13.1635 13.6114 12.8184 13.9565 12.8184 14.3822V17.5258C12.8184 17.9514 13.1635 18.2966 13.5891 18.2966C14.0148 18.2966 14.3599 17.9515 14.3599 17.5257V15.0751C16.1062 14.7173 17.4239 13.1688 17.4239 11.3182C17.4239 9.20372 15.7036 7.48346 13.5891 7.48346Z" stroke="#D99A6C" stroke-width="0.2"/>
</svg>
