<svg width="30" height="30" viewBox="0 0 30 30" fill="none" xmlns="http://www.w3.org/2000/svg">
<rect width="30" height="30" rx="5" fill="#4E6297"/>
<path d="M22 10.3212C22 9.08808 20.9119 8 19.6788 8H10.3212C9.08808 8 8 9.08808 8 10.3212V19.6787C8 20.9119 9.08808 22 10.3212 22H15.0363V16.7047H13.2953V14.3834H15.0363V13.4404C15.0363 11.8446 16.1969 10.4663 17.6477 10.4663H19.5337V12.7876H17.6477C17.4301 12.7876 17.2124 13.0052 17.2124 13.4404V14.3834H19.5337V16.7047H17.2124V22H19.6788C20.9119 22 22 20.9119 22 19.6787V10.3212Z" fill="white"/>
</svg>
