<svg width="30" height="30" viewBox="0 0 30 30" fill="none" xmlns="http://www.w3.org/2000/svg">
<rect width="30" height="30" rx="5" fill="url(#paint0_linear)"/>
<path d="M20.0077 8H9.99231C8.86154 8 8 8.86154 8 9.99231V20.0077C8 21.1385 8.86154 22 9.99231 22H20.0077C21.1385 22 22 21.1385 22 20.0077V9.99231C22 8.86154 21.1385 8 20.0077 8ZM15 19.2C17.3154 19.2 19.2 17.3692 19.2 15.1615C19.2 15.0141 19.1918 14.8584 19.1753 14.7042C19.1393 14.3674 19.3882 14.0308 19.7269 14.0308C20.0009 14.0308 20.2231 14.2529 20.2231 14.527V19.7385C20.2231 20.0077 20.0077 20.2769 19.6846 20.2769H10.3154C10.0462 20.2769 9.77692 20.0615 9.77692 19.7385V14.5094C9.77692 14.2153 10.0153 13.9769 10.3094 13.9769C10.6632 13.9769 10.9172 14.317 10.8782 14.6686C10.862 14.815 10.8538 14.9613 10.8538 15.1077C10.8 17.3692 12.6846 19.2 15 19.2ZM15 17.5846C13.4923 17.5846 12.3077 16.4 12.3077 14.9462C12.3077 13.4923 13.4923 12.3077 15 12.3077C16.5077 12.3077 17.6923 13.4923 17.6923 14.9462C17.6923 16.4538 16.5077 17.5846 15 17.5846ZM20.1692 11.8231C20.1692 12.1462 19.9 12.4154 19.5769 12.4154H18.0692C17.7462 12.4154 17.4769 12.1462 17.4769 11.8231V10.3692C17.4769 10.0462 17.7462 9.77692 18.0692 9.77692H19.5769C19.9 9.77692 20.1692 10.0462 20.1692 10.3692V11.8231Z" fill="white"/>
<defs>
<linearGradient id="paint0_linear" x1="6.375" y1="26.625" x2="26.25" y2="6" gradientUnits="userSpaceOnUse">
<stop stop-color="#EEA054"/>
<stop offset="0.502762" stop-color="#D64763"/>
<stop offset="1" stop-color="#B62A99"/>
</linearGradient>
</defs>
</svg>
