<svg width="30" height="30" viewBox="0 0 30 30" fill="none" xmlns="http://www.w3.org/2000/svg">
<rect width="30" height="30" rx="5" fill="#55ACE3"/>
<path d="M22 11.3397C21.5 11.5513 20.9286 11.6923 20.3572 11.7628C20.9286 11.4103 21.4286 10.8462 21.6429 10.2115C21.0714 10.5641 20.5 10.7756 19.7857 10.9167C19.2857 10.3526 18.5 10 17.7143 10C16.1429 10 14.8571 11.2692 14.8571 12.8205C14.8571 13.0321 14.8571 13.2436 14.9286 13.4551C12.5714 13.3141 10.4286 12.1859 9 10.4936C8.78571 10.9167 8.64285 11.4103 8.64285 11.9038C8.64285 12.891 9.14286 13.7372 9.92857 14.2308C9.42857 14.2308 9 14.0897 8.64285 13.8782C8.64285 15.2179 9.64285 16.4167 10.9286 16.6282C10.7143 16.6987 10.4286 16.6987 10.1429 16.6987C9.92857 16.6987 9.78571 16.6987 9.57143 16.6282C9.92857 17.7564 11 18.6026 12.2857 18.6026C11.2857 19.3782 10.0714 19.8013 8.71429 19.8013C8.5 19.8013 8.28571 19.8013 8 19.7308C9.28571 20.5064 10.7857 21 12.4286 21C17.7143 21 20.5714 16.6987 20.5714 12.9615V12.609C21.1429 12.3974 21.6429 11.9038 22 11.3397Z" fill="white"/>
</svg>
