<svg width="158" height="70" viewBox="0 0 158 70" fill="none" xmlns="http://www.w3.org/2000/svg">
<path fill-rule="evenodd" clip-rule="evenodd" d="M12.1129 2.66445C12.0403 2.48618 13.0336 0.955031 13.2099 0.867518C16.8821 -0.974139 23.0225 0.310029 24.9409 2.90235C28.5671 7.80501 35.5076 14.867 44.2925 23.6481L42.9738 24.6976C42.4461 24.8856 42.2023 24.962 41.6771 25.082L38.1307 30.019L36.7822 33.1837C27.0299 24.6088 17.7768 15.158 12.6141 3.86823C12.6134 3.87342 12.229 2.94514 12.1129 2.66445ZM51.3568 30.7016C55.0173 34.3616 58.8899 38.2536 62.8946 42.3538L52.9044 46.8454C49.5817 43.9932 46.0644 41.0962 42.5206 38.1091C44.664 35.1686 48.095 32.389 51.3568 30.7016Z" fill="#D99A6C"/>
<path fill-rule="evenodd" clip-rule="evenodd" d="M63.2687 47.1527C63.7154 48.2793 64.4234 49.3554 65.3875 50.4062L65.261 50.3453C64.3592 49.9025 63.2557 49.6115 62.1159 49.4455H57.3215C57.0356 49.4928 56.7711 49.5486 56.5338 49.6128C55.4089 49.2802 54.0597 49.1454 52.1581 49.1006L49.9343 47.1527H63.2687ZM69.5122 54.4052L80.7194 65.1777C81.2562 65.5965 81.6653 65.2698 81.8617 65.6723C82.5367 67.0537 79.0337 70.4103 77.713 69.9585C77.2721 69.8081 77.4991 69.0743 77.125 68.7016L62.3792 54.0156C61.3814 53.0011 60.5749 52.1928 59.8364 51.5484C62.7643 50.928 63.941 51.5698 67.9873 53.6409L69.5122 54.4052Z" fill="#6C1515"/>
<path fill-rule="evenodd" clip-rule="evenodd" d="M24.9404 2.903C27.2471 7.17687 32.6828 12.8341 36.5061 17.1728C38.7234 19.6879 40.9504 22.1052 43.2235 24.4986L42.9739 24.6976C42.7794 24.7669 42.6238 24.8207 42.4779 24.8681C37.3042 19.6335 32.288 14.2751 27.7911 8.77997C31.8439 14.5085 36.6247 19.8915 41.648 25.1222L41.1871 25.7639C35.7812 20.3213 30.4849 14.7198 25.5316 8.78192C30.0272 15.0251 35.2548 20.8101 40.7073 26.4316L40.2321 27.0935C34.4567 21.3144 28.7474 15.3493 23.1873 8.79812C28.1516 15.5787 33.8369 21.7688 39.7296 27.7936L39.2356 28.4814C33.0822 22.3555 26.9638 16.0364 20.7502 8.82859C26.2111 16.1725 32.3645 22.7697 38.7091 29.2139L38.1639 29.9736C23.3396 15.2553 18.3947 9.13262 14.8931 1.95787C18.7351 0.749543 21.8147 1.2824 24.9404 2.903Z" fill="white"/>
<path fill-rule="evenodd" clip-rule="evenodd" d="M50.995 48.0803C47.6152 45.1217 44.5466 42.4607 41.7529 40.0369L41.4566 39.7802C41.8028 39.1417 42.2217 38.5019 42.6975 37.8711C46.1824 41.0261 49.6386 44.0411 52.9043 46.8448C54.0344 46.8616 55.7953 47.2914 57.4758 48.0187H50.995V48.0803ZM35.9574 35.0176C23.3388 24.0577 19.3652 19.944 12.614 3.86758C17.7942 13.153 27.1692 23.2909 37.022 32.6217L36.3484 34.2027C36.2168 34.5625 36.08 34.8101 35.9574 35.0176Z" fill="#5E1C1C"/>
<path fill-rule="evenodd" clip-rule="evenodd" d="M0.0220713 17.2337C-0.107596 17.082 0.370229 15.2501 0.515456 15.1055C3.53023 12.0925 9.99545 11.3509 12.7308 13.2775C17.8883 16.9089 27.6173 21.9568 39.5772 28.0049L38.1307 30.019L36.3484 34.2028C35.9744 35.2257 35.5581 35.345 35.5322 36.2117L34.8845 39.9708C22.1641 34.0148 9.58959 27.1162 0.909646 18.2547C0.909646 18.2579 0.175079 17.4107 0.0220713 17.2337ZM48.4367 32.4739C53.6305 35.0934 59.096 37.8588 64.6808 40.7442C64.7794 41.5538 64.9635 42.3032 65.2319 42.9994C65.1742 43.505 61.9649 48.2541 61.5863 48.7798C60.3285 48.8783 57.2846 49.3237 56.4482 49.5875C51.3977 47.3271 45.9639 44.9992 40.4544 42.5223C41.047 39.073 44.5506 35.1848 48.4367 32.4739Z" fill="#D99A6C"/>
<path fill-rule="evenodd" clip-rule="evenodd" d="M65.2313 42.9994C66.0754 45.1892 67.7579 46.8448 70.2838 48.1335L89.6911 57.393C90.3557 57.6309 90.6526 57.1752 90.9781 57.5071C92.0932 58.6473 89.7417 63.0962 88.2927 63.0832C87.8097 63.0787 87.7934 62.2827 87.3033 62.0376L67.9841 52.3944C62.861 49.7716 61.6194 49.2718 56.3147 50.8943L43.1067 45.3694L40.4194 44.2466C40.2897 43.3669 40.4045 42.4348 40.7144 41.4819C46.0748 43.9569 51.3841 46.3002 56.4482 48.5672C57.2846 48.3033 58.3991 48.0161 59.6569 47.9183C61.2628 45.6877 63.0937 43.9841 65.2313 42.9994ZM38.4569 43.4272C20.0817 35.7397 13.4602 32.6223 0.909668 18.2547C10.684 26.3279 22.8391 32.9717 35.0803 38.8351L34.8119 40.3948L34.7639 40.8271L38.4569 43.4272Z" fill="#6C1515"/>
<path fill-rule="evenodd" clip-rule="evenodd" d="M12.7308 13.2775C17.0883 17.469 28.1677 23.3168 34.076 26.5801C35.6372 27.4429 37.2017 28.2875 38.7752 29.1218L38.2222 29.8919C31.5884 26.5658 25.0797 23.0705 19.0683 19.2575C24.8385 23.5119 31.2655 27.1654 37.8883 30.5888L37.5641 31.3492C30.5212 27.8467 23.5393 24.153 16.8458 19.9959C23.1729 24.5796 30.1244 28.4535 37.2477 32.0927L36.9099 32.8836C29.4417 29.197 21.9768 25.305 14.5442 20.7757C21.449 25.6952 28.9373 29.8096 36.5702 33.6816L36.3485 34.2028C36.3135 34.2987 36.2778 34.3862 36.2428 34.4672C28.3337 30.5998 20.3851 26.5269 12.1564 21.6003C19.6201 26.8342 27.6594 31.1852 35.8013 35.2808C35.6658 35.5167 35.5653 35.7404 35.538 36.0963C16.119 26.4141 8.25858 21.4862 2.52856 15.6293C5.56473 13.3054 8.50948 12.8049 11.6222 13.1297C11.9891 13.1673 12.3587 13.2172 12.7308 13.2775ZM47.1349 33.4385C52.0181 35.907 57.0791 38.3956 62.4817 41.1033C62.752 41.2381 62.7845 41.3982 62.5595 41.5869L62.5024 41.6349C57.3222 39.0918 51.9228 36.5565 46.5034 33.9486C46.7115 33.7756 46.9222 33.6057 47.1349 33.4385ZM45.7948 34.558C51.1144 37.1756 56.4424 39.74 61.5481 42.4361L61.1416 42.7777C55.9121 40.1886 50.5717 37.6644 45.2184 35.0863C45.407 34.908 45.5996 34.7317 45.7948 34.558ZM44.5506 35.7397C49.8151 38.3282 55.0887 40.8771 60.1943 43.5725L59.7211 43.9705C54.4851 41.3581 49.2374 38.861 43.9878 36.3303C44.1713 36.1313 44.3587 35.9342 44.5506 35.7397ZM43.3479 37.057C48.5275 39.6039 53.7149 42.1159 58.7745 44.7646L58.2733 45.1859C53.0782 42.5735 47.9602 40.1257 42.8532 37.6683C43.0121 37.4634 43.1774 37.2599 43.3479 37.057ZM42.2574 38.4812C47.3203 40.9652 52.3741 43.4149 57.3053 45.9787C56.9157 46.2251 56.4586 46.2795 56.0294 46.074C50.7656 43.5485 46.047 41.2686 41.7984 39.1877C41.9423 38.9518 42.096 38.7165 42.2574 38.4812Z" fill="white"/>
<path fill-rule="evenodd" clip-rule="evenodd" d="M100.026 43.3591L76.7302 46.227L81.8437 48.5153L99.1984 46.38L98.9034 47.4807L83.7089 49.3502L88.823 51.6391L98.0696 50.5015L97.774 51.6022L90.6902 52.4747L96.8092 55.2136L95.3563 60.5667L153.359 53.4257L158 36.2213L100.026 43.3591Z" fill="#6C1515"/>
<path d="M111.928 52.5143L111.178 55.3011L99.0026 56.7998L99.2651 55.8437L100.313 55.7147L102.826 46.3839L101.778 46.5135L102.041 45.5573L108.175 44.8021L107.913 45.7576L106.865 45.8867L104.351 55.2175L107.511 54.8285L107.998 52.9979L111.928 52.5143ZM122.452 43.0441L122.19 44.0003L121.158 44.1273L118.644 53.4575L119.676 53.3304L119.414 54.2866L113.311 55.0379L113.573 54.0824L114.605 53.9553L117.118 44.6245L116.086 44.7516L116.348 43.7954L122.452 43.0441ZM137.931 41.1383L137.179 43.9406L133.313 44.4164L133.801 42.5702L130.407 42.9884L129.294 47.1125L132.687 46.695L132.442 47.6337L129.048 48.0511L127.894 52.3192L128.958 52.1882L128.695 53.1437L122.529 53.9028L122.791 52.9473L123.839 52.8183L126.353 43.4875L125.305 43.6165L125.567 42.6603L137.931 41.1383ZM153.036 39.2785L152.286 42.0808L148.293 42.5722L148.782 40.726L145.013 41.1901L143.9 45.2993L147.387 44.8696L147.141 45.8238L143.653 46.2529L142.5 50.5209L146.268 50.0568L146.757 48.2262L150.748 47.7348L149.998 50.5209L137.166 52.1014L137.428 51.1452L138.46 51.0181L140.974 41.6873L139.942 41.8144L140.204 40.8582L153.036 39.2785Z" fill="white"/>
<path d="M128.293 20.2331C128.388 20.213 129.032 19.9874 132.234 19.3288C131.237 21.3377 130.275 23.6072 129.497 25.7458C126.823 29.2314 122.185 35.3229 119.577 35.6269C116.896 35.94 117.565 32.96 118.27 31.0899C119.468 31.9157 121.298 32.0661 123.092 30.6076C131.948 23.4056 123.77 16.6989 117.887 23.9949C116.36 25.8877 114.727 28.4982 114.117 31.0445L114.11 31.0471C113.691 31.9086 110.774 36.0774 108.955 36.4729C108.338 36.6071 106.392 34.7038 105.444 32.0797C108.205 32.0454 112.999 28.7698 114.037 25.5241C114.563 23.8769 113.801 21.1562 111.495 21.4252C109.69 21.6359 106.771 24.9218 104.03 28.8748C105.95 24.4117 110.639 16.4376 112.094 15.0971C113.261 13.868 109.725 12.4775 108.016 12.6759C107.255 12.7641 103.142 21.6184 100.333 29.0123V29.0129C99.3663 30.4138 95.5165 35.8207 92.3584 38.3068C91.8449 38.7106 91.0695 39.0626 90.7259 39.1021C89.9913 39.1884 89.4655 38.7651 89.2075 38.109C88.1559 35.4474 93.3556 27.4182 95.6105 27.6795C95.3265 29.1659 93.0528 32.0959 93.0528 32.0959C93.5326 33.327 96.406 30.7547 97.6703 28.7011C99.7171 25.3743 94.3235 22.2952 90.4128 26.2229C88.8438 27.7981 87.1613 30.2647 86.2699 32.8388C83.7478 36.0729 80.6527 39.9876 79.8487 40.0816C78.4782 40.2418 82.5893 30.3107 85.6001 27.3002C87.2139 25.6881 82.6476 24.9465 81.5143 25.1533C80.6514 25.3101 78.4179 29.7752 77.0907 33.7334C74.2983 37.4193 70.5937 42.1787 69.876 41.0184C69.1622 39.8658 72.9238 30.8623 75.6559 28.1456C77.1471 26.6617 72.5005 25.3808 71.5085 26.0504C71.3549 26.383 69.6569 27.966 67.6068 28.6084C68.1624 27.8182 69.5862 26.0368 69.3729 25.4541C68.121 22.0391 56.7102 26.1211 63.5644 31.2182C62.5952 32.7844 62.0376 33.5759 60.3182 35.835C60.2851 35.8797 60.3001 35.9186 60.315 35.9569C60.4706 36.2214 61.893 35.9342 62.1109 35.7073C62.8163 34.8983 63.91 33.5188 65.4362 31.8068C66.4061 31.6804 67.5815 31.309 69.0708 29.9282C67.0065 33.5201 65.7001 38.8759 66.1947 40.7182C66.7854 42.9125 69.2491 44.76 71.5947 42.7381C72.8493 41.6556 74.6134 39.4736 76.1467 37.4407C75.7856 41.0637 78.9573 44.4151 82.2573 40.8414C83.2901 39.7245 84.5135 38.1039 85.6313 36.5293C85.654 37.2832 85.7869 38.0125 86.0572 38.6957C87.3746 42.0335 91.3256 42.3751 94.6153 38.7398C95.8147 37.4148 97.3201 35.4506 98.7361 33.5169C97.925 36.0353 97.4868 37.9619 97.7221 38.6348C98.292 40.2625 99.7728 40.6048 99.9608 40.0486C102.197 33.4534 106.02 27.8091 108.63 25.6232C110.29 24.2354 110.735 25.3121 109.983 26.6818C109.195 28.1183 107.052 30.0041 105.105 30.2309C102.842 30.4954 102.673 32.0551 103.044 33.0858C103.828 35.2594 105.817 38.7463 108.265 38.8779C110.154 38.9796 112.738 36.1533 113.957 34.0763C114.018 34.4303 114.113 34.7758 114.244 35.1103C115.42 38.0902 118.932 38.7638 121.967 36.7905C124.137 35.3799 126.27 32.7779 128.105 30.2147C127.975 30.7508 127.873 31.2448 127.806 31.6843C127.314 34.8879 130.102 37.2034 133.333 35.6872C135.546 34.6474 137.577 32.1711 138.325 30.5564C138.792 29.5464 138.767 29.09 137.961 29.184C137.474 29.2411 133.907 34.145 131.865 33.937C129.961 33.7431 135.05 23.2598 138.388 18.1283C138.918 18.0226 142.577 17.3893 144.163 17.283C146.087 17.1533 146.214 16.7248 144.69 16.4409C144.445 16.3962 142.315 16.1887 139.54 16.4351L142.126 12.7673C143.182 11.2699 139.22 10.0285 137.727 10.2411C137.242 10.3105 134.956 14.0618 133.493 16.8674L130.284 17.1241C126.578 17.4191 126.411 20.6324 128.293 20.2331ZM124.061 24.3585C124.934 24.4584 123.182 29.1425 120.531 30.1065C119.901 30.3353 118.73 30.0832 118.908 29.7234C120.299 26.9081 122.739 24.2068 124.061 24.3585Z" fill="#E63017"/>
<path fill-rule="evenodd" clip-rule="evenodd" d="M34.9636 36.2117L37.0065 31.1431L41.1462 25.8216L46.4126 21.2295L46.9183 21.1757L54.9597 15.9768L69.756 10.5724L79.2205 8.32426L82.3694 7.83938L82.6936 19.216L82.9439 19.0857V19.2997L81.0929 21.151L72.5128 20.4257C72.184 20.6681 72.243 20.5812 72.0615 20.8541L56.729 24.3799C56.3387 24.8888 56.1448 24.9426 55.6035 25.303L44.7743 29.7519C44.1525 30.651 44.2109 30.6271 43.2196 31.2526L37.7813 37.3571C37.1472 37.737 36.5229 37.6365 35.7676 37.6313H35.2878L34.9636 36.2117Z" fill="white"/>
<path d="M60.0004 38.3385C62.3934 35.7579 64.304 33.4521 65.436 31.8075C65.3874 31.4859 63.7659 30.5343 63.5643 30.8338C62.9814 31.6979 60.7622 34.2883 57.8563 37.2307L57.8835 37.2585L60.0004 38.3385ZM45.8886 46.5329C31.9753 51.8446 37.5899 21.3325 81.9862 21.6975L82.6935 20.0607C72.0121 18.2922 46.1305 22.0326 36.8852 34.6857C46.679 14.8164 75.5339 10.9412 79.2203 8.32422C70.1358 9.5319 58.2019 12.9708 48.6006 18.7907C40.9165 23.4484 25.8563 37.9509 32.4363 47.8216C35.4711 52.3749 43.1027 52.1513 49.4694 48.031L45.8886 46.5329Z" fill="#E63017"/>
<path fill-rule="evenodd" clip-rule="evenodd" d="M80.4004 10.5724C74.3119 11.7872 60.4264 15.9191 56.3108 19.216C62.3954 17.0917 74.5083 15.521 79.8124 15.9268C78.1643 15.4465 80.8484 11.3691 80.4004 10.5724Z" fill="#E63017"/>
<path fill-rule="evenodd" clip-rule="evenodd" d="M94.3448 16.1997C94.3221 16.2963 94.2988 16.3923 94.2728 16.4889C93.0611 21.011 88.4119 23.6947 83.8884 22.4832C79.3656 21.2716 76.6815 16.6224 77.8932 12.1003C78.7769 8.80395 81.487 6.48453 84.6431 5.93871C81.9479 11.8183 87.1469 19.216 94.3448 16.1997Z" fill="#6C1515"/>
<path fill-rule="evenodd" clip-rule="evenodd" d="M88.2784 6.10599C92.704 7.29162 95.3686 11.7697 94.3449 16.1998C92.6968 18.8932 89.4175 20.3038 86.2102 19.4449C82.3098 18.3999 79.9939 14.3892 81.0397 10.4868C81.583 8.45976 82.9283 6.86054 84.6432 5.93939C85.8167 5.73649 87.0524 5.77798 88.2784 6.10599Z" fill="#E63017"/>
<path fill-rule="evenodd" clip-rule="evenodd" d="M90.2448 6.90654C90.9826 7.32141 91.3645 7.55284 91.9337 8.15052C93.6738 12.4827 89.5938 21.925 85.4996 22.7535C85.0756 22.7243 84.6587 22.6627 84.2321 22.5668C86.1058 22.7301 88.7017 19.7858 90.2195 15.6714C91.6763 11.7236 91.6432 8.04744 90.2448 6.90654ZM82.6404 22.043C82.4031 21.938 82.1723 21.822 81.948 21.6975C86.559 21.7396 90.6908 6.82421 86.3586 5.82008C86.8877 5.83759 87.4213 5.90565 87.9548 6.02687C89.5997 6.82486 89.894 10.4933 88.5351 14.6848C87.1503 18.9561 84.5543 22.1739 82.6404 22.043Z" fill="#C9996E"/>
<path fill-rule="evenodd" clip-rule="evenodd" d="M90.2454 6.90654C90.9826 7.32141 91.3644 7.55284 91.9337 8.15052C93.0968 11.0462 91.6594 16.2244 89.3559 19.5875C88.963 19.6562 88.563 19.6931 88.1578 19.6957C88.9332 18.5859 89.6515 17.2104 90.2195 15.6714C91.6763 11.7236 91.6432 8.04745 90.2454 6.90654ZM86.214 19.4461L86.2102 19.4448C85.9106 19.3645 85.6202 19.2666 85.3401 19.1525C88.1461 14.8579 89.5517 6.56038 86.3586 5.82008C86.887 5.83759 87.4213 5.90565 87.9548 6.02687C89.5997 6.82486 89.894 10.4933 88.5351 14.6855C87.9367 16.5303 87.112 18.1788 86.214 19.4461Z" fill="white"/>
</svg>
