<svg aria-hidden="true" style="position: absolute; width: 0; height: 0; overflow: hidden;" version="1.1" xmlns="http://www.w3.org/2000/svg" xmlns:xlink="http://www.w3.org/1999/xlink">
<defs>
<symbol id="icon-dislike" viewBox="0 0 38 32">
<path fill="#fff" style="fill: var(--color1, #fff)" d="M35.636 14.402l-0.727 1.091v1.962c0 1.604-1.305 2.909-2.909 2.909h-6.374c-0.367 0-0.555 0.241-0.619 0.345s-0.196 0.38-0.032 0.707l2.335 4.671c0.213 0.425 0.325 0.902 0.325 1.378 0 1.699-1.382 3.081-3.081 3.081h-0.555c-0.202 0-0.394-0.084-0.532-0.231l-7.835-8.394c-1.639-1.757-2.543-4.048-2.543-6.451v-6.742c0-4.010 3.263-7.273 7.273-7.273h7.898c1.219 0 2.349 0.605 3.025 1.619l4.35 6.524c0.476 0.712 0.727 1.543 0.727 2.402s-0.251 1.69-0.727 2.402zM34.426 10.405l-4.35-6.524c-0.406-0.609-1.084-0.972-1.815-0.972h-7.898c-3.208 0-5.818 2.61-5.818 5.818v6.742c0 2.033 0.764 3.972 2.152 5.458l7.619 8.164h0.239c0.897 0 1.626-0.729 1.626-1.626 0-0.251-0.060-0.503-0.172-0.727l-2.335-4.67c-0.341-0.681-0.305-1.475 0.095-2.123s1.094-1.035 1.856-1.035h6.374c0.802 0 1.455-0.653 1.455-1.455v-2.182c0-0.143 0.043-0.284 0.122-0.403l0.849-1.274c0.316-0.474 0.483-1.025 0.483-1.595s-0.167-1.121-0.483-1.595z"></path>
<path fill="#fff" style="fill: var(--color1, #fff)" d="M8.727 20.364h-4.364c-1.604 0-2.909-1.305-2.909-2.909v-13.091c0-1.604 1.305-2.909 2.909-2.909h4.364c1.604 0 2.909 1.305 2.909 2.909v13.091c-0 1.604-1.305 2.909-2.909 2.909zM10.182 4.364c0-0.802-0.653-1.455-1.455-1.455h-4.364c-0.802 0-1.455 0.653-1.455 1.455v13.091c0 0.802 0.653 1.455 1.455 1.455h4.364c0.802 0 1.455-0.653 1.455-1.455v-13.091z"></path>
<path fill="none" stroke="#fff" style="stroke: var(--color1, #fff)" stroke-linejoin="miter" stroke-linecap="butt" stroke-miterlimit="4" stroke-width="1.0182" d="M35.636 14.402l-0.727 1.091v1.962c0 1.604-1.305 2.909-2.909 2.909h-6.374c-0.367 0-0.555 0.241-0.619 0.345s-0.196 0.38-0.032 0.707l2.335 4.671c0.213 0.425 0.325 0.902 0.325 1.378 0 1.699-1.382 3.081-3.081 3.081h-0.555c-0.202 0-0.394-0.084-0.532-0.231l-7.835-8.394c-1.639-1.757-2.543-4.048-2.543-6.451v-6.742c0-4.010 3.263-7.273 7.273-7.273h7.898c1.219 0 2.349 0.605 3.025 1.619l4.35 6.524c0.476 0.712 0.727 1.543 0.727 2.402s-0.251 1.69-0.727 2.402zM34.426 10.405l-4.35-6.524c-0.406-0.609-1.084-0.972-1.815-0.972h-7.898c-3.208 0-5.818 2.61-5.818 5.818v6.742c0 2.033 0.764 3.972 2.152 5.458l7.619 8.164h0.239c0.897 0 1.626-0.729 1.626-1.626 0-0.251-0.060-0.503-0.172-0.727l-2.335-4.67c-0.341-0.681-0.305-1.475 0.095-2.123s1.094-1.035 1.856-1.035h6.374c0.802 0 1.455-0.653 1.455-1.455v-2.182c0-0.143 0.043-0.284 0.122-0.403l0.849-1.274c0.316-0.474 0.483-1.025 0.483-1.595s-0.167-1.121-0.483-1.595z"></path>
<path fill="none" stroke="#fff" style="stroke: var(--color1, #fff)" stroke-linejoin="miter" stroke-linecap="butt" stroke-miterlimit="4" stroke-width="1.0182" d="M8.727 20.364h-4.364c-1.604 0-2.909-1.305-2.909-2.909v-13.091c0-1.604 1.305-2.909 2.909-2.909h4.364c1.604 0 2.909 1.305 2.909 2.909v13.091c-0 1.604-1.305 2.909-2.909 2.909zM10.182 4.364c0-0.802-0.653-1.455-1.455-1.455h-4.364c-0.802 0-1.455 0.653-1.455 1.455v13.091c0 0.802 0.653 1.455 1.455 1.455h4.364c0.802 0 1.455-0.653 1.455-1.455v-13.091z"></path>
</symbol>
<symbol id="icon-like" viewBox="0 0 38 32">
<path fill="#fff" style="fill: var(--color1, #fff)" d="M35.636 17.598l-0.727-1.091v-1.962c0-1.604-1.305-2.909-2.909-2.909h-6.374c-0.367 0-0.555-0.242-0.619-0.345s-0.196-0.38-0.032-0.707l2.335-4.67c0.213-0.425 0.325-0.902 0.325-1.378 0-1.699-1.382-3.081-3.081-3.081h-0.555c-0.202 0-0.394 0.084-0.532 0.231l-7.835 8.394c-1.639 1.757-2.543 4.048-2.543 6.451v6.742c0 4.010 3.263 7.273 7.273 7.273h7.898c1.219 0 2.349-0.605 3.025-1.619l4.35-6.524c0.476-0.712 0.727-1.543 0.727-2.402s-0.251-1.69-0.727-2.402zM34.426 21.595l-4.35 6.524c-0.406 0.609-1.084 0.971-1.815 0.971h-7.898c-3.208 0-5.818-2.61-5.818-5.818v-6.742c0-2.033 0.764-3.972 2.152-5.458l7.619-8.163h0.239c0.897 0 1.626 0.729 1.626 1.626 0 0.251-0.060 0.503-0.172 0.727l-2.335 4.67c-0.341 0.681-0.305 1.475 0.095 2.123s1.094 1.035 1.856 1.035h6.374c0.802 0 1.455 0.653 1.455 1.455v2.182c0 0.143 0.043 0.284 0.122 0.403l0.849 1.274c0.316 0.474 0.483 1.025 0.483 1.595s-0.167 1.121-0.483 1.595z"></path>
<path fill="#fff" style="fill: var(--color1, #fff)" d="M8.727 11.636h-4.364c-1.604 0-2.909 1.305-2.909 2.909v13.091c0 1.604 1.305 2.909 2.909 2.909h4.364c1.604 0 2.909-1.305 2.909-2.909v-13.091c-0-1.604-1.305-2.909-2.909-2.909zM10.182 27.636c0 0.802-0.653 1.455-1.455 1.455h-4.364c-0.802 0-1.455-0.653-1.455-1.455v-13.091c0-0.802 0.653-1.454 1.455-1.454h4.364c0.802 0 1.455 0.653 1.455 1.454v13.091z"></path>
<path fill="none" stroke="#fff" style="stroke: var(--color1, #fff)" stroke-linejoin="miter" stroke-linecap="butt" stroke-miterlimit="4" stroke-width="1.0182" d="M35.636 17.598l-0.727-1.091v-1.962c0-1.604-1.305-2.909-2.909-2.909h-6.374c-0.367 0-0.555-0.242-0.619-0.345s-0.196-0.38-0.032-0.707l2.335-4.67c0.213-0.425 0.325-0.902 0.325-1.378 0-1.699-1.382-3.081-3.081-3.081h-0.555c-0.202 0-0.394 0.084-0.532 0.231l-7.835 8.394c-1.639 1.757-2.543 4.048-2.543 6.451v6.742c0 4.010 3.263 7.273 7.273 7.273h7.898c1.219 0 2.349-0.605 3.025-1.619l4.35-6.524c0.476-0.712 0.727-1.543 0.727-2.402s-0.251-1.69-0.727-2.402zM34.426 21.595l-4.35 6.524c-0.406 0.609-1.084 0.971-1.815 0.971h-7.898c-3.208 0-5.818-2.61-5.818-5.818v-6.742c0-2.033 0.764-3.972 2.152-5.458l7.619-8.163h0.239c0.897 0 1.626 0.729 1.626 1.626 0 0.251-0.060 0.503-0.172 0.727l-2.335 4.67c-0.341 0.681-0.305 1.475 0.095 2.123s1.094 1.035 1.856 1.035h6.374c0.802 0 1.455 0.653 1.455 1.455v2.182c0 0.143 0.043 0.284 0.122 0.403l0.849 1.274c0.316 0.474 0.483 1.025 0.483 1.595s-0.167 1.121-0.483 1.595z"></path>
<path fill="none" stroke="#fff" style="stroke: var(--color1, #fff)" stroke-linejoin="miter" stroke-linecap="butt" stroke-miterlimit="4" stroke-width="1.0182" d="M8.727 11.636h-4.364c-1.604 0-2.909 1.305-2.909 2.909v13.091c0 1.604 1.305 2.909 2.909 2.909h4.364c1.604 0 2.909-1.305 2.909-2.909v-13.091c-0-1.604-1.305-2.909-2.909-2.909zM10.182 27.636c0 0.802-0.653 1.455-1.455 1.455h-4.364c-0.802 0-1.455-0.653-1.455-1.455v-13.091c0-0.802 0.653-1.454 1.455-1.454h4.364c0.802 0 1.455 0.653 1.455 1.454v13.091z"></path>
</symbol>
<symbol id="icon-mini-instagramm" viewBox="0 0 32 32">
<path fill="#fff" style="fill: var(--color1, #fff)" d="M27.446 0h-22.892c-2.585 0-4.554 1.969-4.554 4.554v22.892c0 2.585 1.969 4.554 4.554 4.554h22.892c2.585 0 4.554-1.969 4.554-4.554v-22.892c0-2.585-1.969-4.554-4.554-4.554zM16 25.6c5.292 0 9.6-4.185 9.6-9.231 0-0.337-0.019-0.693-0.056-1.045-0.082-0.77 0.487-1.539 1.261-1.539 0.626 0 1.134 0.508 1.134 1.134v11.912c0 0.615-0.492 1.231-1.231 1.231h-21.415c-0.615 0-1.231-0.492-1.231-1.231v-11.952c0-0.672 0.545-1.217 1.217-1.217 0.809 0 1.389 0.777 1.3 1.581-0.037 0.335-0.056 0.669-0.056 1.004-0.123 5.169 4.185 9.354 9.477 9.354zM16 21.908c-3.446 0-6.154-2.708-6.154-6.031s2.708-6.031 6.154-6.031c3.446 0 6.154 2.708 6.154 6.031 0 3.446-2.708 6.031-6.154 6.031zM27.815 8.738c0 0.738-0.615 1.354-1.354 1.354h-3.446c-0.738 0-1.354-0.615-1.354-1.354v-3.323c0-0.738 0.615-1.354 1.354-1.354h3.446c0.738 0 1.354 0.615 1.354 1.354v3.323z"></path>
</symbol>
<symbol id="icon-mini-twitter" viewBox="0 0 41 32">
<path fill="#fff" style="fill: var(--color1, #fff)" d="M40.727 3.897c-1.455 0.615-3.117 1.026-4.779 1.231 1.662-1.026 3.117-2.667 3.74-4.513-1.663 1.026-3.325 1.641-5.403 2.051-1.455-1.641-3.74-2.667-6.026-2.667-4.571 0-8.312 3.692-8.312 8.205 0 0.615 0 1.231 0.208 1.846-6.857-0.41-13.091-3.692-17.247-8.615-0.623 1.231-1.039 2.667-1.039 4.103 0 2.872 1.455 5.333 3.74 6.769-1.455 0-2.701-0.41-3.74-1.026 0 3.897 2.909 7.385 6.649 8-0.623 0.205-1.455 0.205-2.286 0.205-0.623 0-1.039-0-1.662-0.205 1.039 3.282 4.156 5.744 7.896 5.744-2.909 2.256-6.442 3.487-10.39 3.487-0.623 0-1.247 0-2.078-0.205 3.74 2.256 8.104 3.692 12.883 3.692 15.377 0 23.688-12.513 23.688-23.385v-1.026c1.663-0.615 3.117-2.051 4.156-3.692z"></path>
</symbol>
<symbol id="icon-mini-facebook" viewBox="0 0 32 32">
<path fill="#fff" style="fill: var(--color1, #fff)" d="M32 5.306c0-2.819-2.487-5.306-5.306-5.306h-21.389c-2.819 0-5.306 2.487-5.306 5.306v21.388c0 2.819 2.487 5.306 5.306 5.306h10.777v-12.104h-3.979v-5.306h3.979v-2.155c0-3.648 2.653-6.798 5.969-6.798h4.311v5.306h-4.311c-0.497 0-0.995 0.497-0.995 1.492v2.155h5.306v5.306h-5.306v12.104h5.637c2.819 0 5.306-2.487 5.306-5.306v-21.388z"></path>
</symbol>
<symbol id="icon-eye" viewBox="0 0 49 32">
<path fill="#ababab" style="fill: var(--color2, #ababab)" d="M46.605 15.451c-0.349-0.532-8.735-12.989-21.99-12.989-11.374 0-21.51 12.386-21.936 12.914-0.29 0.36-0.29 0.888 0 1.249 0.426 0.528 10.562 12.914 21.936 12.914s21.51-12.386 21.936-12.914c0.268-0.333 0.292-0.814 0.054-1.174zM24.615 27.604c-9.118 0-17.788-9.109-19.99-11.604 2.199-2.497 10.859-11.604 19.99-11.604 10.669 0 18.2 9.096 20.038 11.552-2.123 2.416-10.843 11.657-20.038 11.657z"></path>
<path fill="#ababab" style="fill: var(--color2, #ababab)" d="M24.615 8.264c-4.073 0-7.385 3.47-7.385 7.736s3.312 7.736 7.385 7.736c4.073 0 7.385-3.47 7.385-7.736s-3.312-7.736-7.385-7.736zM24.615 21.802c-3.054 0-5.539-2.603-5.539-5.802s2.485-5.802 5.539-5.802c3.054 0 5.539 2.603 5.539 5.802s-2.485 5.802-5.539 5.802z"></path>
<path fill="none" stroke="#ababab" style="stroke: var(--color2, #ababab)" stroke-linejoin="miter" stroke-linecap="butt" stroke-miterlimit="4" stroke-width="1.7231" d="M46.605 15.451c-0.349-0.532-8.735-12.989-21.99-12.989-11.374 0-21.51 12.386-21.936 12.914-0.29 0.36-0.29 0.888 0 1.249 0.426 0.528 10.562 12.914 21.936 12.914s21.51-12.386 21.936-12.914c0.268-0.333 0.292-0.814 0.054-1.174zM24.615 27.604c-9.118 0-17.788-9.109-19.99-11.604 2.199-2.497 10.859-11.604 19.99-11.604 10.669 0 18.2 9.096 20.038 11.552-2.123 2.416-10.843 11.657-20.038 11.657z"></path>
<path fill="none" stroke="#ababab" style="stroke: var(--color2, #ababab)" stroke-linejoin="miter" stroke-linecap="butt" stroke-miterlimit="4" stroke-width="1.7231" d="M24.615 8.264c-4.073 0-7.385 3.47-7.385 7.736s3.312 7.736 7.385 7.736c4.073 0 7.385-3.47 7.385-7.736s-3.312-7.736-7.385-7.736zM24.615 21.802c-3.054 0-5.539-2.603-5.539-5.802s2.485-5.802 5.539-5.802c3.054 0 5.539 2.603 5.539 5.802s-2.485 5.802-5.539 5.802z"></path>
</symbol>
<symbol id="icon-comments" viewBox="0 0 32 32">
<path fill="#d96c6c" style="fill: var(--color3, #d96c6c); stroke: var(--color3, #d96c6c)" stroke="#d96c6c" stroke-linejoin="miter" stroke-linecap="butt" stroke-miterlimit="4" stroke-width="1.4" d="M11.625 16.875h8.75c0.483 0 0.875 0.392 0.875 0.875s-0.392 0.875-0.875 0.875h-8.75c-0.483 0-0.875-0.392-0.875-0.875s0.392-0.875 0.875-0.875zM9.875 11.625h12.25c0.483 0 0.875 0.392 0.875 0.875s-0.392 0.875-0.875 0.875h-12.25c-0.483 0-0.875-0.392-0.875-0.875s0.392-0.875 0.875-0.875zM16 2c7.731 0 14 5.484 14 12.25 0 3.867-2.052 7.309-5.25 9.554v6.196l-6.133-3.721c-0.849 0.14-1.722 0.221-2.617 0.221-7.732 0-14-5.484-14-12.25s6.268-12.25 14-12.25zM16 24.75c1.022 0 2.009-0.119 2.958-0.321l4.119 2.476-0.055-4.058c3.158-1.9 5.228-5.039 5.228-8.597 0-5.799-5.484-10.5-12.25-10.5s-12.25 4.701-12.25 10.5 5.484 10.5 12.25 10.5z"></path>
</symbol>
<symbol id="icon-404" viewBox="0 0 67 32">
<path fill="#d99a6c" style="fill: var(--color4, #d99a6c)" d="M10.505 25.249c-0.18 0-0.342-0.063-0.486-0.189-0.126-0.144-0.189-0.306-0.189-0.486v-3.051h-8.398c-0.198 0-0.36-0.063-0.486-0.189s-0.189-0.288-0.189-0.486v-2.565c0-0.27 0.099-0.549 0.297-0.837l7.858-10.64c0.252-0.306 0.585-0.459 0.999-0.459h3.943c0.198 0 0.36 0.063 0.486 0.189s0.189 0.288 0.189 0.486v10.478h2.376c0.216 0 0.387 0.072 0.513 0.216 0.126 0.126 0.189 0.279 0.189 0.459v2.673c0 0.198-0.063 0.36-0.189 0.486s-0.288 0.189-0.486 0.189h-2.403v3.051c0 0.18-0.063 0.342-0.189 0.486-0.126 0.126-0.288 0.189-0.486 0.189h-3.349zM9.938 17.688v-6.373l-4.537 6.373h4.537z"></path>
<path fill="#d99a6c" style="fill: var(--color4, #d99a6c)" d="M58.977 25.249c-0.18 0-0.342-0.063-0.486-0.189-0.126-0.144-0.189-0.306-0.189-0.486v-3.051h-8.398c-0.198 0-0.36-0.063-0.486-0.189s-0.189-0.288-0.189-0.486v-2.565c0-0.27 0.099-0.549 0.297-0.837l7.858-10.64c0.252-0.306 0.585-0.459 0.999-0.459h3.943c0.198 0 0.36 0.063 0.486 0.189s0.189 0.288 0.189 0.486v10.478h2.376c0.216 0 0.387 0.072 0.513 0.216 0.126 0.126 0.189 0.279 0.189 0.459v2.673c0 0.198-0.063 0.36-0.189 0.486s-0.288 0.189-0.486 0.189h-2.403v3.051c0 0.18-0.063 0.342-0.189 0.486-0.126 0.126-0.288 0.189-0.486 0.189h-3.349zM58.41 17.688v-6.373l-4.537 6.373h4.537z"></path>
<path fill="#6c1515" style="fill: var(--color5, #6c1515)" d="M42.825 17.921c-0.026 0.108-0.052 0.215-0.081 0.322-1.37 5.040-6.626 8.032-11.739 6.681s-8.147-6.533-6.777-11.573c0.999-3.674 4.063-6.259 7.63-6.868-3.047 6.554 2.83 14.799 10.967 11.437z"></path>
<path fill="#e63017" style="fill: var(--color6, #e63017)" d="M35.967 6.669c5.003 1.322 8.015 6.313 6.858 11.251-1.863 3.002-5.57 4.575-9.196 3.617-4.409-1.165-7.027-5.635-5.845-9.985 0.614-2.259 2.135-4.042 4.074-5.069 1.327-0.226 2.723-0.18 4.11 0.186z"></path>
<path fill="#c9996e" style="fill: var(--color7, #c9996e)" d="M38.191 7.562c0.834 0.462 1.266 0.72 1.909 1.387 1.967 4.829-2.645 15.354-7.273 16.277-0.479-0.033-0.951-0.101-1.433-0.208 2.118 0.182 5.053-3.1 6.768-7.686 1.647-4.4 1.609-8.498 0.029-9.77zM29.594 24.434c-0.268-0.117-0.529-0.246-0.783-0.385 5.213 0.047 9.883-16.578 4.986-17.698 0.598 0.019 1.201 0.095 1.804 0.231 1.859 0.889 2.192 4.978 0.656 9.65-1.565 4.761-4.5 8.348-6.664 8.202z"></path>
<path fill="#fff" style="fill: var(--color1, #fff)" d="M38.19 7.562c0.833 0.462 1.265 0.72 1.909 1.387 1.315 3.228-0.31 8.999-2.914 12.748-0.444 0.077-0.896 0.118-1.354 0.121 0.877-1.237 1.689-2.77 2.331-4.486 1.647-4.4 1.609-8.498 0.029-9.77zM33.633 21.539l-0.004-0.001c-0.339-0.090-0.667-0.199-0.984-0.326 3.172-4.787 4.761-14.036 1.151-14.861 0.597 0.019 1.201 0.095 1.804 0.231 1.859 0.889 2.192 4.978 0.656 9.651-0.676 2.056-1.609 3.894-2.624 5.306z"></path>
</symbol>
<symbol id="icon-arrow-buttons" viewBox="0 0 16 32">
<path  stroke-linejoin="miter" stroke-linecap="butt" stroke-miterlimit="4" stroke-width="2.2857" d="M2.286 3.61l9.441 12.296-9.228 12.485 1.065 1.324 10.151-13.903-10.435-13.525-0.994 1.324z"></path>
</symbol>
<symbol id="icon-articles" viewBox="0 0 32 32">
<path  stroke-linejoin="miter" stroke-linecap="butt" stroke-miterlimit="4" stroke-width="0.381" d="M11.596 26.486l18.134-18.22c0.994-0.995 0.995-2.604 0-3.599l-2.399-2.4c-0.992-0.992-2.606-0.992-3.6 0.001-5.44 5.465-12.709 12.769-18.149 18.234-0.063 0.064-0.132 0.159-0.173 0.252-0.040 0.089-3.793 8.486-3.814 8.533-0.247 0.565 0.173 1.188 0.777 1.188 0 0 0 0 0.001 0h20.468c0.468 0 0.848-0.38 0.848-0.848s-0.38-0.848-0.848-0.848h-16.375l4.851-2.1c0.104-0.045 0.202-0.115 0.277-0.193zM24.932 3.468c0.331-0.331 0.869-0.331 1.2 0l2.399 2.4c0.326 0.326 0.337 0.863-0.001 1.201l-1.794 1.802-3.598-3.599 1.795-1.804zM21.94 6.474l3.598 3.599-2.394 2.405-3.598-3.599 2.394-2.405zM4.037 27.983l2.418-5.41 3.044 3.045-5.463 2.365zM7.382 21.101l10.968-11.020 3.599 3.599-10.968 11.019-3.599-3.599z"></path>
</symbol>
<symbol id="icon-lope" viewBox="0 0 32 32">
<path fill="#fff" style="fill: var(--color1, #fff)" d="M13.188 26.355c-7.272 0-13.188-5.911-13.188-13.177s5.916-13.177 13.188-13.177c7.272 0 13.188 5.911 13.188 13.177s-5.916 13.177-13.188 13.177zM13.188 2.498c-5.893 0-10.688 4.791-10.688 10.679s4.794 10.679 10.688 10.679c5.893 0 10.688-4.791 10.688-10.679s-4.794-10.679-10.688-10.679zM31.634 31.634c0.488-0.488 0.488-1.279 0-1.767l-5.594-5.589c-0.488-0.488-1.28-0.488-1.768 0s-0.488 1.279 0 1.767l5.594 5.589c0.244 0.244 0.564 0.366 0.884 0.366s0.64-0.122 0.884-0.366z"></path>
</symbol>
<symbol id="icon-marker-list" viewBox="0 0 32 32">
<path  d="M31.587 19.594c-0.043 0.182-0.087 0.363-0.136 0.546-2.286 8.533-11.058 13.598-19.592 11.311-8.533-2.286-13.597-11.059-11.311-19.593 1.667-6.22 6.78-10.597 12.735-11.627-5.085 11.095 4.724 25.055 18.304 19.363z"></path>
<path  d="M20.142 0.547c8.35 2.237 13.377 10.688 11.445 19.047-3.109 5.083-9.296 7.744-15.347 6.124-7.359-1.972-11.728-9.54-9.755-16.904 1.025-3.825 3.563-6.843 6.799-8.581 2.214-0.383 4.545-0.305 6.858 0.314z"></path>
<path fill="#fff" style="fill: var(--color1, #fff)" d="M23.852 2.058c1.392 0.783 2.112 1.22 3.186 2.347 3.283 8.175-4.415 25.993-12.139 27.556-0.8-0.055-1.587-0.171-2.391-0.352 3.535 0.308 8.433-5.248 11.296-13.012 2.748-7.45 2.686-14.387 0.048-16.54zM9.505 30.621c-0.448-0.198-0.883-0.417-1.306-0.652 8.699 0.079 16.495-28.066 8.321-29.961 0.998 0.033 2.005 0.161 3.011 0.39 3.103 1.506 3.659 8.428 1.095 16.338-2.613 8.060-7.51 14.132-11.121 13.885z"></path>
<path fill="#fff" style="fill: var(--color1, #fff)" d="M23.853 2.058c1.391 0.783 2.111 1.22 3.185 2.347 2.194 5.464-0.517 15.236-4.863 21.582-0.741 0.13-1.496 0.199-2.26 0.204 1.463-2.094 2.818-4.69 3.89-7.594 2.748-7.45 2.686-14.387 0.049-16.54zM16.247 25.721l-0.007-0.002c-0.565-0.152-1.113-0.336-1.642-0.552 5.294-8.104 7.946-23.762 1.922-25.159 0.997 0.033 2.005 0.161 3.011 0.39 3.103 1.506 3.659 8.428 1.095 16.339-1.129 3.481-2.685 6.592-4.379 8.984z"></path>
</symbol>
<symbol id="icon-news" viewBox="0 0 37 32">
<path fill="#6c1515" style="fill: var(--color5, #6c1515)" d="M21.475 12.907h-11.035c-0.38 0-0.688 0.426-0.688 0.952s0.308 0.952 0.688 0.952h11.035c0.38 0 0.688-0.426 0.688-0.952s-0.308-0.952-0.688-0.952z"></path>
<path fill="#6c1515" style="fill: var(--color5, #6c1515)" d="M21.475 17.223h-11.035c-0.38 0-0.688 0.426-0.688 0.952s0.308 0.952 0.688 0.952h11.035c0.38 0 0.688-0.426 0.688-0.952s-0.308-0.952-0.688-0.952z"></path>
<path fill="#6c1515" style="fill: var(--color5, #6c1515)" d="M34.096 5.937h-3.683v-3.461c0-0.526-0.425-0.952-0.95-0.952h-26.992c-0.525 0-0.95 0.426-0.95 0.952v24.727c0 1.805 1.465 3.273 3.265 3.273h26.993c1.801 0 3.266-1.468 3.266-3.273v-20.314c0-0.526-0.425-0.952-0.95-0.952zM3.421 27.203v-23.775h25.092v23.775c0 0.489 0.108 0.952 0.3 1.369h-24.027c-0.753 0-1.365-0.614-1.365-1.369zM31.779 28.572c-0.754 0-1.367-0.614-1.367-1.369v-19.362h2.733v19.362c0 0.755-0.613 1.369-1.367 1.369z"></path>
</symbol>
<symbol id="icon-players" viewBox="0 0 49 32">
<path  stroke-linejoin="miter" stroke-linecap="butt" stroke-miterlimit="4" stroke-width="0.6095" d="M41.060 14.263c1.339-0.938 2.225-2.499 2.225-4.258 0-2.878-2.334-5.206-5.219-5.206s-5.219 2.328-5.219 5.206c0 1.759 0.877 3.32 2.225 4.258-1.149 0.397-2.198 1.011-3.084 1.804-1.221-1.038-2.659-1.832-4.233-2.301 1.909-1.155 3.193-3.257 3.193-5.648 0-3.645-2.958-6.595-6.612-6.595s-6.612 2.959-6.612 6.595c0 2.391 1.275 4.493 3.193 5.648-1.556 0.469-2.976 1.254-4.188 2.274-0.886-0.776-1.918-1.38-3.048-1.768 1.339-0.938 2.225-2.499 2.225-4.258 0-2.878-2.334-5.206-5.219-5.206s-5.219 2.328-5.219 5.206c0 1.759 0.877 3.32 2.225 4.258-3.591 1.236-6.169 4.637-6.169 8.634v0.596c0 0.018 0.018 0.036 0.036 0.036h11.062c-0.063 0.496-0.1 1.010-0.1 1.525v0.613c0 2.652 2.153 4.8 4.812 4.8h14.020c2.659 0 4.812-2.147 4.812-4.8v-0.613c0-0.514-0.036-1.029-0.099-1.525h11.135c0.018 0 0.036-0.018 0.036-0.036v-0.596c-0.018-4.006-2.587-7.407-6.178-8.643zM34.294 9.996c0-2.075 1.691-3.762 3.772-3.762s3.772 1.687 3.772 3.762c0 2.048-1.655 3.717-3.7 3.762-0.027 0-0.045 0-0.072 0s-0.045 0-0.072 0c-2.053-0.036-3.7-1.705-3.7-3.762zM19.153 8.119c0-2.842 2.315-5.152 5.165-5.152s5.165 2.31 5.165 5.152c0 2.743-2.162 4.989-4.866 5.143-0.099 0-0.199 0-0.299 0s-0.199 0-0.298 0c-2.705-0.153-4.866-2.4-4.866-5.143zM6.888 9.996c0-2.075 1.691-3.762 3.772-3.762s3.772 1.687 3.772 3.762c0 2.048-1.655 3.717-3.699 3.762-0.027 0-0.045 0-0.072 0s-0.045 0-0.072 0c-2.044-0.036-3.699-1.705-3.699-3.762zM12.876 22.085h-9.886c0.407-3.843 3.663-6.857 7.616-6.884 0.018 0 0.036 0 0.054 0s0.036 0 0.054 0c1.881 0.009 3.6 0.704 4.93 1.831-1.302 1.408-2.27 3.14-2.768 5.053zM34.702 25.676c0 1.85-1.511 3.356-3.365 3.356h-14.020c-1.854 0-3.365-1.507-3.365-3.356v-0.613c0-5.603 4.486-10.186 10.067-10.349 0.099 0.009 0.208 0.009 0.308 0.009s0.208 0 0.308-0.009c5.581 0.162 10.067 4.746 10.067 10.349v0.613zM35.778 22.085c-0.497-1.904-1.447-3.609-2.741-5.016 1.339-1.155 3.075-1.85 4.975-1.868 0.018 0 0.036 0 0.054 0s0.036 0 0.054 0c3.953 0.027 7.209 3.040 7.616 6.884h-9.959z"></path>
</symbol>
<symbol id="icon-result" viewBox="0 0 41 32">
<path  d="M35.886 26.97h-1.718v2.736c0 0.426-0.346 0.771-0.774 0.771s-0.774-0.345-0.774-0.771v-2.736h-24.099v2.736c0 0.426-0.346 0.771-0.774 0.771s-0.774-0.345-0.774-0.771v-2.736h-1.717c-2.058 0-3.733-1.668-3.733-3.717v-18.011c0-2.050 1.675-3.717 3.733-3.717h30.629c2.058 0 3.733 1.668 3.733 3.717v18.011c0 2.050-1.675 3.717-3.733 3.717zM38.071 23.252v-3.032h-16.726v5.209h14.54c1.205 0 2.185-0.976 2.185-2.176zM5.257 25.429h14.541v-5.209h-16.727v3.032c0 1.2 0.98 2.176 2.186 2.176zM3.072 5.241v13.438h16.727v-15.614h-14.541c-1.205 0-2.186 0.976-2.186 2.176zM35.886 3.065h-14.54v15.614h16.725v-13.438c0-1.2-0.98-2.176-2.185-2.176z"></path>
<path  d="M11.529 16.426h-0.188c-1.851 0-3.358-1.5-3.358-3.343v-4.392c0-1.844 1.506-3.343 3.358-3.343h0.188c1.851 0 3.358 1.5 3.358 3.343v4.392c0 1.844-1.506 3.343-3.358 3.343zM13.339 8.69c0-0.994-0.812-1.802-1.81-1.802h-0.188c-0.998 0-1.81 0.809-1.81 1.802v4.392c0 0.994 0.812 1.802 1.81 1.802h0.188c0.998 0 1.81-0.809 1.81-1.802v-4.392z"></path>
<path  d="M29.811 16.426h-0.188c-1.851 0-3.358-1.5-3.358-3.343v-4.392c0-1.844 1.506-3.343 3.358-3.343h0.188c1.851 0 3.358 1.5 3.358 3.343v4.392c0 1.844-1.506 3.343-3.358 3.343zM31.621 8.69c0-0.994-0.812-1.802-1.81-1.802h-0.188c-0.998 0-1.81 0.809-1.81 1.802v4.392c0 0.994 0.812 1.802 1.81 1.802h0.188c0.998 0 1.81-0.809 1.81-1.802v-4.392z"></path>
<path fill="none" stroke-linejoin="miter" stroke-linecap="butt" stroke-miterlimit="4" stroke-width="0.6095" d="M35.886 26.97h-1.718v2.736c0 0.426-0.346 0.771-0.774 0.771s-0.774-0.345-0.774-0.771v-2.736h-24.099v2.736c0 0.426-0.346 0.771-0.774 0.771s-0.774-0.345-0.774-0.771v-2.736h-1.717c-2.058 0-3.733-1.668-3.733-3.717v-18.011c0-2.050 1.675-3.717 3.733-3.717h30.629c2.058 0 3.733 1.668 3.733 3.717v18.011c0 2.050-1.675 3.717-3.733 3.717zM38.071 23.252v-3.032h-16.726v5.209h14.54c1.205 0 2.185-0.976 2.185-2.176zM5.257 25.429h14.541v-5.209h-16.727v3.032c0 1.2 0.98 2.176 2.186 2.176zM3.072 5.241v13.438h16.727v-15.614h-14.541c-1.205 0-2.186 0.976-2.186 2.176zM35.886 3.065h-14.54v15.614h16.725v-13.438c0-1.2-0.98-2.176-2.185-2.176z"></path>
<path fill="none" stroke-linejoin="miter" stroke-linecap="butt" stroke-miterlimit="4" stroke-width="0.6095" d="M11.529 16.426h-0.188c-1.851 0-3.358-1.5-3.358-3.343v-4.392c0-1.844 1.506-3.343 3.358-3.343h0.188c1.851 0 3.358 1.5 3.358 3.343v4.392c0 1.844-1.506 3.343-3.358 3.343zM13.339 8.69c0-0.994-0.812-1.802-1.81-1.802h-0.188c-0.998 0-1.81 0.809-1.81 1.802v4.392c0 0.994 0.812 1.802 1.81 1.802h0.188c0.998 0 1.81-0.809 1.81-1.802v-4.392z"></path>
<path fill="none" stroke-linejoin="miter" stroke-linecap="butt" stroke-miterlimit="4" stroke-width="0.6095" d="M29.811 16.426h-0.188c-1.851 0-3.358-1.5-3.358-3.343v-4.392c0-1.844 1.506-3.343 3.358-3.343h0.188c1.851 0 3.358 1.5 3.358 3.343v4.392c0 1.844-1.506 3.343-3.358 3.343zM31.621 8.69c0-0.994-0.812-1.802-1.81-1.802h-0.188c-0.998 0-1.81 0.809-1.81 1.802v4.392c0 0.994 0.812 1.802 1.81 1.802h0.188c0.998 0 1.81-0.809 1.81-1.802v-4.392z"></path>
</symbol>
<symbol id="icon-schedule" viewBox="0 0 34 32">
<path fill="#6c1515" style="fill: var(--color5, #6c1515)" d="M29.051 3.77h-3.932v-1.275c0-0.536-0.44-0.971-0.983-0.971s-0.983 0.435-0.983 0.971v1.275h-5.407v-1.275c0-0.536-0.44-0.971-0.983-0.971s-0.983 0.435-0.983 0.971v1.275h-5.407v-1.275c0-0.536-0.44-0.971-0.983-0.971s-0.983 0.435-0.983 0.971v1.275h-3.932c-1.626 0-2.949 1.307-2.949 2.913v20.88c0 1.606 1.323 2.913 2.949 2.913h24.578c1.626 0 2.949-1.307 2.949-2.913v-20.88c0-1.606-1.323-2.913-2.949-2.913zM30.034 27.563c0 0.535-0.441 0.971-0.983 0.971h-24.578c-0.542 0-0.983-0.436-0.983-0.971v-14.628h22.243c0.543 0 0.983-0.435 0.983-0.971s-0.44-0.971-0.983-0.971h-22.243v-4.309c0-0.535 0.441-0.971 0.983-0.971h3.932v1.275c0 0.536 0.44 0.971 0.983 0.971s0.983-0.435 0.983-0.971v-1.275h5.407v1.275c0 0.536 0.44 0.971 0.983 0.971s0.983-0.435 0.983-0.971v-1.275h5.407v1.275c0 0.536 0.44 0.971 0.983 0.971s0.983-0.435 0.983-0.971v-1.275h3.932c0.542 0 0.983 0.436 0.983 0.971v20.88zM15.41 22.908v0.649h3.687c0.543 0 0.983 0.435 0.983 0.971s-0.44 0.971-0.983 0.971h-4.67c-0.543 0-0.983-0.435-0.983-0.971v-1.62c0-1.387 0.951-2.59 2.313-2.926l1.533-0.379c0.485-0.12 0.823-0.548 0.823-1.042 0-0.592-0.488-1.074-1.087-1.074h-2.6c-0.543 0-0.983-0.435-0.983-0.971s0.44-0.971 0.983-0.971h2.6c1.683 0 3.053 1.353 3.053 3.016 0 1.387-0.951 2.59-2.313 2.926l-1.533 0.379c-0.485 0.12-0.823 0.548-0.823 1.042z"></path>
</symbol>
<symbol id="icon-select-arrow" viewBox="0 0 64 32">
<path fill="#d99a6c" style="fill: var(--color4, #d99a6c); stroke: var(--color4, #d99a6c)" stroke="#d99a6c" stroke-linejoin="miter" stroke-linecap="butt" stroke-miterlimit="4" stroke-width="6.4" d="M55.128 6.4l-22.952 15.861-23.305-15.503-2.472 1.789 25.953 17.053 25.247-17.53-2.472-1.67z"></path>
</symbol>
<symbol id="icon-series" viewBox="0 0 32 32">
<path  d="M20.67 21.604h-1.401c-0.258 0-0.467 0.209-0.467 0.467s0.209 0.467 0.467 0.467h1.401c0.258 0 0.467-0.209 0.467-0.467s-0.209-0.467-0.467-0.467z"></path>
<path  d="M23.472 21.604h-1.401c-0.258 0-0.467 0.209-0.467 0.467s0.209 0.467 0.467 0.467h1.401c0.258 0 0.467-0.209 0.467-0.467s-0.209-0.467-0.467-0.467z"></path>
<path  d="M26.273 21.604h-1.401c-0.258 0-0.467 0.209-0.467 0.467s0.209 0.467 0.467 0.467h1.401c0.258 0 0.467-0.209 0.467-0.467s-0.209-0.467-0.467-0.467z"></path>
<path  d="M28.141 1.524h-24.283c-1.289 0.002-2.333 1.046-2.335 2.335v24.283c0.002 1.289 1.046 2.333 2.335 2.335h24.283c1.289-0.002 2.333-1.046 2.335-2.335v-24.283c-0.002-1.289-1.046-2.333-2.335-2.335zM29.542 28.141c0 0.774-0.627 1.401-1.401 1.401h-24.283c-0.774 0-1.401-0.627-1.401-1.401v-24.283c0-0.774 0.627-1.401 1.401-1.401h24.283c0.774 0 1.401 0.627 1.401 1.401v24.283z"></path>
<path  d="M28.141 15.533h-11.674v-11.674c0-0.258-0.209-0.467-0.467-0.467s-0.467 0.209-0.467 0.467v11.674h-11.674c-0.258 0-0.467 0.209-0.467 0.467s0.209 0.467 0.467 0.467h11.674v11.674c0 0.258 0.209 0.467 0.467 0.467s0.467-0.209 0.467-0.467v-11.674h11.674c0.258 0 0.467-0.209 0.467-0.467s-0.209-0.467-0.467-0.467z"></path>
<path  d="M7.831 8.952l1.164-1.164v5.41c0 0.258 0.209 0.467 0.467 0.467s0.467-0.209 0.467-0.467v-6.538c0-0.189-0.114-0.359-0.288-0.431s-0.375-0.032-0.509 0.101l-1.961 1.961c-0.177 0.183-0.174 0.475 0.006 0.655s0.472 0.183 0.655 0.006z"></path>
<path  d="M11.797 20.436c-0.069-1.223-1.112-2.161-2.335-2.101-1.223-0.060-2.266 0.878-2.335 2.101 0 0.258 0.209 0.467 0.467 0.467s0.467-0.209 0.467-0.467c0.071-0.706 0.694-1.225 1.401-1.167 0.707-0.057 1.33 0.462 1.401 1.167-0.071 0.706-0.694 1.225-1.401 1.167-0.258 0-0.467 0.209-0.467 0.467s0.209 0.467 0.467 0.467c0.707-0.057 1.33 0.462 1.401 1.168-0.071 0.706-0.694 1.225-1.401 1.167-0.707 0.057-1.33-0.462-1.401-1.167 0-0.258-0.209-0.467-0.467-0.467s-0.467 0.209-0.467 0.467c0.069 1.223 1.112 2.161 2.335 2.101 1.223 0.060 2.266-0.879 2.335-2.101-0.010-0.653-0.333-1.261-0.869-1.634 0.536-0.373 0.859-0.982 0.869-1.634z"></path>
<path  d="M20.576 9.089c0.258 0 0.467-0.209 0.467-0.467 0-0.825 0.669-1.494 1.494-1.494 0.481-0.011 0.93 0.243 1.168 0.662 0.255 0.455 0.247 1.011-0.021 1.458-0.685 0.996-1.504 1.894-2.432 2.668-0.353 0.327-0.697 0.643-1.006 0.952-0.133 0.134-0.173 0.335-0.101 0.509s0.242 0.288 0.431 0.288h3.829c0.258 0 0.467-0.209 0.467-0.467s-0.209-0.467-0.467-0.467h-2.662l0.14-0.129c0.998-0.833 1.875-1.802 2.603-2.879 0.438-0.736 0.449-1.65 0.028-2.396-0.404-0.709-1.161-1.143-1.977-1.133-1.34 0.001-2.427 1.088-2.428 2.428 0 0.258 0.209 0.467 0.467 0.467z"></path>
<path fill="none"  stroke-linejoin="miter" stroke-linecap="butt" stroke-miterlimit="4" stroke-width="1.219" d="M20.67 21.604h-1.401c-0.258 0-0.467 0.209-0.467 0.467s0.209 0.467 0.467 0.467h1.401c0.258 0 0.467-0.209 0.467-0.467s-0.209-0.467-0.467-0.467z"></path>
<path fill="none"  stroke-linejoin="miter" stroke-linecap="butt" stroke-miterlimit="4" stroke-width="1.219" d="M23.472 21.604h-1.401c-0.258 0-0.467 0.209-0.467 0.467s0.209 0.467 0.467 0.467h1.401c0.258 0 0.467-0.209 0.467-0.467s-0.209-0.467-0.467-0.467z"></path>
<path fill="none"  stroke-linejoin="miter" stroke-linecap="butt" stroke-miterlimit="4" stroke-width="1.219" d="M26.273 21.604h-1.401c-0.258 0-0.467 0.209-0.467 0.467s0.209 0.467 0.467 0.467h1.401c0.258 0 0.467-0.209 0.467-0.467s-0.209-0.467-0.467-0.467z"></path>
<path fill="none"  stroke-linejoin="miter" stroke-linecap="butt" stroke-miterlimit="4" stroke-width="1.219" d="M28.141 1.524h-24.283c-1.289 0.002-2.333 1.046-2.335 2.335v24.283c0.002 1.289 1.046 2.333 2.335 2.335h24.283c1.289-0.002 2.333-1.046 2.335-2.335v-24.283c-0.002-1.289-1.046-2.333-2.335-2.335zM29.542 28.141c0 0.774-0.627 1.401-1.401 1.401h-24.283c-0.774 0-1.401-0.627-1.401-1.401v-24.283c0-0.774 0.627-1.401 1.401-1.401h24.283c0.774 0 1.401 0.627 1.401 1.401v24.283z"></path>
<path fill="none"  stroke-linejoin="miter" stroke-linecap="butt" stroke-miterlimit="4" stroke-width="1.219" d="M28.141 15.533h-11.674v-11.674c0-0.258-0.209-0.467-0.467-0.467s-0.467 0.209-0.467 0.467v11.674h-11.674c-0.258 0-0.467 0.209-0.467 0.467s0.209 0.467 0.467 0.467h11.674v11.674c0 0.258 0.209 0.467 0.467 0.467s0.467-0.209 0.467-0.467v-11.674h11.674c0.258 0 0.467-0.209 0.467-0.467s-0.209-0.467-0.467-0.467z"></path>
<path fill="none"  stroke-linejoin="miter" stroke-linecap="butt" stroke-miterlimit="4" stroke-width="1.219" d="M7.831 8.952l1.164-1.164v5.41c0 0.258 0.209 0.467 0.467 0.467s0.467-0.209 0.467-0.467v-6.538c0-0.189-0.114-0.359-0.288-0.431s-0.375-0.032-0.509 0.101l-1.961 1.961c-0.177 0.183-0.174 0.475 0.006 0.655s0.472 0.183 0.655 0.006z"></path>
<path fill="none"  stroke-linejoin="miter" stroke-linecap="butt" stroke-miterlimit="4" stroke-width="1.219" d="M11.797 20.436c-0.069-1.223-1.112-2.161-2.335-2.101-1.223-0.060-2.266 0.878-2.335 2.101 0 0.258 0.209 0.467 0.467 0.467s0.467-0.209 0.467-0.467c0.071-0.706 0.694-1.225 1.401-1.167 0.707-0.057 1.33 0.462 1.401 1.167-0.071 0.706-0.694 1.225-1.401 1.167-0.258 0-0.467 0.209-0.467 0.467s0.209 0.467 0.467 0.467c0.707-0.057 1.33 0.462 1.401 1.168-0.071 0.706-0.694 1.225-1.401 1.167-0.707 0.057-1.33-0.462-1.401-1.167 0-0.258-0.209-0.467-0.467-0.467s-0.467 0.209-0.467 0.467c0.069 1.223 1.112 2.161 2.335 2.101 1.223 0.060 2.266-0.879 2.335-2.101-0.010-0.653-0.333-1.261-0.869-1.634 0.536-0.373 0.859-0.982 0.869-1.634z"></path>
<path fill="none"  stroke-linejoin="miter" stroke-linecap="butt" stroke-miterlimit="4" stroke-width="1.219" d="M20.576 9.089c0.258 0 0.467-0.209 0.467-0.467 0-0.825 0.669-1.494 1.494-1.494 0.481-0.011 0.93 0.243 1.168 0.662 0.255 0.455 0.247 1.011-0.021 1.458-0.685 0.996-1.504 1.894-2.432 2.668-0.353 0.327-0.697 0.643-1.006 0.952-0.133 0.134-0.173 0.335-0.101 0.509s0.242 0.288 0.431 0.288h3.829c0.258 0 0.467-0.209 0.467-0.467s-0.209-0.467-0.467-0.467h-2.662l0.14-0.129c0.998-0.833 1.875-1.802 2.603-2.879 0.438-0.736 0.449-1.65 0.028-2.396-0.404-0.709-1.161-1.143-1.977-1.133-1.34 0.001-2.427 1.088-2.428 2.428 0 0.258 0.209 0.467 0.467 0.467z"></path>
</symbol>
<symbol id="icon-slider-arrow" viewBox="0 0 62 32">
<path   d="M61.754 16.919c0.115-0.121 0.206-0.264 0.268-0.422 0.127-0.317 0.127-0.675 0-0.993-0.062-0.158-0.153-0.301-0.268-0.422l-14.055-14.701c-0.485-0.508-1.273-0.508-1.758 0s-0.485 1.331 0 1.839l11.935 12.481h-56.634c-0.686 0-1.242 0.582-1.242 1.299s0.556 1.299 1.242 1.299h56.634l-11.935 12.481c-0.485 0.508-0.485 1.331 0 1.838s1.272 0.508 1.758 0l14.055-14.701z"></path>
</symbol>
<symbol id="icon-slider-arrow2" viewBox="0 0 17 32">
<path fill="#fff" style="fill: var(--color1, #fff); stroke: var(--color1, #fff)" stroke="#fff" stroke-linejoin="miter" stroke-linecap="butt" stroke-miterlimit="4" stroke-width="1.0667" d="M14.933 16l-11.188 13.867-1.612-1.996 9.648-11.902-9.622-11.87 1.587-1.965 11.188 13.867z"></path>
</symbol>
<symbol id="icon-teams" viewBox="0 0 44 32">
<path fill="#6c1515" style="fill: var(--color5, #6c1515)" d="M37.94 26.066c0.444 0 0.804-0.36 0.804-0.804s-0.36-0.804-0.804-0.804c-0.444 0-0.803 0.36-0.803 0.804s0.36 0.804 0.803 0.804z"></path>
<path fill="#6c1515" style="fill: var(--color5, #6c1515)" d="M42.643 18.632c-0.052-0.208-0.188-0.389-0.373-0.498l-6.209-3.664c-0.051-0.136-0.112-0.269-0.184-0.398-0.173-0.308-0.4-0.573-0.667-0.792-0.074-0.269-0.401-0.955-0.473-1.070 0.128-0.645 0.023-1.307-0.303-1.887-0.324-0.575-0.831-1.010-1.445-1.243 0.325-0.754 0.32-1.635-0.092-2.399-0.363-0.674-0.973-1.16-1.716-1.369-0.231-0.065-0.465-0.1-0.699-0.106 0.054-0.557-0.063-1.117-0.343-1.615-0.366-0.651-0.967-1.121-1.691-1.325-0.72-0.202-1.477-0.117-2.134 0.24-0.080 0.043-1.476 0.785-3.448 1.846-1.586-0.933-4.141-2.434-4.141-2.434-0.437-0.258-0.935-0.395-1.442-0.395-0.98 0-1.904 0.515-2.41 1.345-0.388 0.636-0.502 1.383-0.323 2.104 0.002 0.007 0.004 0.014 0.006 0.022-0.722 0.173-1.361 0.626-1.752 1.266-0.388 0.636-0.503 1.383-0.323 2.104 0.002 0.007 0.004 0.014 0.006 0.021-0.722 0.174-1.361 0.626-1.752 1.266-0.347 0.568-0.474 1.225-0.37 1.872-0.129 0.126-0.25 0.255-0.361 0.386-0.549 0.225-1.025 0.618-1.339 1.134-0.281 0.461-0.418 0.981-0.404 1.506l-6.317 3.439c-0.189 0.103-0.33 0.277-0.389 0.484s-0.034 0.43 0.072 0.618l6.173 10.975c0.147 0.262 0.42 0.41 0.701 0.41 0.131 0 0.264-0.032 0.387-0.1l4.282-2.359c0.188-0.104 0.327-0.278 0.385-0.485s0.032-0.428-0.073-0.615l-0.804-1.426 2.023-1.118c1.183 0.594 2.453 0.891 3.742 0.891 1.395 0 2.811-0.349 4.159-1.043 1.055 0.417 2.137 0.625 3.209 0.625 1.193 0 2.373-0.258 3.487-0.771l1.98 1.186-0.854 1.397c-0.111 0.183-0.146 0.405-0.094 0.613s0.185 0.388 0.368 0.498l4.195 2.505c0.124 0.074 0.267 0.114 0.411 0.114 0.282 0 0.539-0.144 0.686-0.385l0.751-1.233c0.231-0.379 0.111-0.875-0.268-1.106-0.126-0.077-0.27-0.117-0.418-0.117-0.283 0-0.539 0.144-0.686 0.385l-0.338 0.553-2.814-1.681 5.714-9.353 2.818 1.655-1.614 2.647c-0.231 0.379-0.111 0.874 0.267 1.106 0.126 0.077 0.271 0.117 0.418 0.117 0.283 0 0.54-0.144 0.687-0.385v-0.001l2.039-3.344c0.112-0.183 0.146-0.407 0.093-0.615zM32.914 18.842c0 0 1.852-0.966 1.856-0.968 0.618-0.338 1.076-0.878 1.305-1.532l0.471 0.276-4.432 7.27-1.669-0.999c-0 0 2.458-4.023 2.469-4.047zM16.245 3.707c0.219-0.36 0.608-0.574 1.038-0.574 0.219 0 0.435 0.059 0.624 0.171l1.53 0.906c0.276 0.163 0.47 0.421 0.546 0.727 0.075 0.3 0.027 0.611-0.135 0.876v0c-0.088 0.144-0.204 0.263-0.338 0.354-0.074 0.040-0.147 0.080-0.22 0.12-0.332 0.139-0.725 0.136-1.061-0.045l-1.573-0.931c-0 0-0-0-0-0-0.276-0.163-0.469-0.421-0.545-0.727-0.075-0.3-0.027-0.612 0.135-0.877zM14.177 7.099c0.219-0.36 0.607-0.575 1.037-0.575 0.219 0 0.435 0.059 0.624 0.171l2.678 1.585c0.276 0.163 0.47 0.421 0.546 0.727 0.075 0.3 0.027 0.612-0.135 0.877-0.329 0.54-1.053 0.732-1.617 0.43l-2.723-1.611c-0.275-0.163-0.469-0.421-0.545-0.726-0.075-0.3-0.027-0.612 0.136-0.878zM12.107 10.491c0.217-0.355 0.614-0.575 1.038-0.575 0.218 0 0.434 0.059 0.623 0.171l2.755 1.63c0.276 0.163 0.47 0.421 0.546 0.727 0.075 0.3 0.027 0.612-0.135 0.877-0.343 0.561-1.088 0.742-1.661 0.403l-2.755-1.63c-0.276-0.163-0.47-0.421-0.546-0.727-0.075-0.3-0.027-0.611 0.135-0.876zM13.23 14.384c0.276 0.163 0.47 0.422 0.546 0.727 0.075 0.3 0.027 0.612-0.135 0.877v0c-0.343 0.562-1.089 0.743-1.662 0.404l-1.53-0.906c-0.276-0.163-0.47-0.422-0.546-0.727-0.075-0.3-0.027-0.611 0.135-0.877 0.217-0.355 0.614-0.575 1.038-0.575 0.219 0 0.435 0.059 0.624 0.171l1.53 0.906zM8.81 28.583l-5.381-9.568 2.875-1.558 5.379 9.543-2.873 1.583zM11.888 24.091l-4.179-7.414 1.073-0.579c0.222 0.309 0.509 0.573 0.848 0.774l0.638 0.378 3.327 5.898-1.706 0.943zM15.28 22.864l-2.648-4.695c0.942-0.011 1.859-0.489 2.38-1.342v0c0.256-0.42 0.392-0.889 0.404-1.366 0.158 0.027 0.317 0.042 0.476 0.042 0.954 0 1.886-0.479 2.413-1.343 0.388-0.636 0.502-1.383 0.323-2.104-0.007-0.026-0.014-0.052-0.021-0.077 0.682-0.178 1.297-0.61 1.691-1.256 0.388-0.636 0.502-1.383 0.323-2.104-0.088-0.354-0.242-0.679-0.451-0.966 0.072-0.039 6.885-3.719 6.901-3.727 0.003-0.001 0.006-0.003 0.008-0.004 0.287-0.157 0.619-0.194 0.934-0.106 0.312 0.088 0.569 0.288 0.725 0.565 0.152 0.271 0.189 0.585 0.104 0.884-0.088 0.306-0.293 0.561-0.578 0.717l-0.002 0.001c-0 0-0 0-0.001 0l-4.476 2.445c-0.39 0.213-0.533 0.701-0.32 1.091 0.146 0.267 0.422 0.419 0.706 0.419 0.13 0 0.262-0.032 0.384-0.098l5.257-2.872c0.287-0.157 0.619-0.194 0.934-0.106 0.32 0.090 0.581 0.297 0.736 0.584 0.303 0.561 0.067 1.281-0.524 1.604l-5.219 2.851c-0.39 0.213-0.533 0.702-0.32 1.091 0.146 0.268 0.421 0.419 0.706 0.419 0.13 0 0.262-0.032 0.384-0.098l4.872-2.662c0.285-0.154 0.614-0.19 0.927-0.102 0.312 0.088 0.57 0.288 0.725 0.565 0.152 0.271 0.189 0.585 0.104 0.883-0.088 0.307-0.294 0.562-0.575 0.716l-4.919 2.529c-0.395 0.202-0.552 0.687-0.35 1.082 0.142 0.278 0.424 0.438 0.716 0.438 0.123 0 0.248-0.028 0.365-0.088l4.458-2.28c0.283-0.15 0.609-0.185 0.919-0.098 0.312 0.088 0.57 0.288 0.725 0.565 0.153 0.271 0.189 0.585 0.104 0.884-0.087 0.305-0.291 0.558-0.574 0.715l-11.939 6.227c-0.005 0.002-0.009 0.005-0.014 0.007-2.263 1.236-4.659 1.295-6.773 0.171zM24.674 23.14l5.481-2.859-1.385 2.266c-1.291 0.628-2.698 0.826-4.096 0.593z"></path>
<path fill="none" stroke="#6c1515" style="stroke: var(--color5, #6c1515)" stroke-linejoin="miter" stroke-linecap="butt" stroke-miterlimit="4" stroke-width="0.381" d="M37.94 26.066c0.444 0 0.804-0.36 0.804-0.804s-0.36-0.804-0.804-0.804c-0.444 0-0.803 0.36-0.803 0.804s0.36 0.804 0.803 0.804z"></path>
<path fill="none" stroke="#6c1515" style="stroke: var(--color5, #6c1515)" stroke-linejoin="miter" stroke-linecap="butt" stroke-miterlimit="4" stroke-width="0.381" d="M42.643 18.632c-0.052-0.208-0.188-0.389-0.373-0.498l-6.209-3.664c-0.051-0.136-0.112-0.269-0.184-0.398-0.173-0.308-0.4-0.573-0.667-0.792-0.074-0.269-0.401-0.955-0.473-1.070 0.128-0.645 0.023-1.307-0.303-1.887-0.324-0.575-0.831-1.010-1.445-1.243 0.325-0.754 0.32-1.635-0.092-2.399-0.363-0.674-0.973-1.16-1.716-1.369-0.231-0.065-0.465-0.1-0.699-0.106 0.054-0.557-0.063-1.117-0.343-1.615-0.366-0.651-0.967-1.121-1.691-1.325-0.72-0.202-1.477-0.117-2.134 0.24-0.080 0.043-1.476 0.785-3.448 1.846-1.586-0.933-4.141-2.434-4.141-2.434-0.437-0.258-0.935-0.395-1.442-0.395-0.98 0-1.904 0.515-2.41 1.345-0.388 0.636-0.502 1.383-0.323 2.104 0.002 0.007 0.004 0.014 0.006 0.022-0.722 0.173-1.361 0.626-1.752 1.266-0.388 0.636-0.503 1.383-0.323 2.104 0.002 0.007 0.004 0.014 0.006 0.021-0.722 0.174-1.361 0.626-1.752 1.266-0.347 0.568-0.474 1.225-0.37 1.872-0.129 0.126-0.25 0.255-0.361 0.386-0.549 0.225-1.025 0.618-1.339 1.134-0.281 0.461-0.418 0.981-0.404 1.506l-6.317 3.439c-0.189 0.103-0.33 0.277-0.389 0.484s-0.034 0.43 0.072 0.618l6.173 10.975c0.147 0.262 0.42 0.41 0.701 0.41 0.131 0 0.264-0.032 0.387-0.1l4.282-2.359c0.188-0.104 0.327-0.278 0.385-0.485s0.032-0.428-0.073-0.615l-0.804-1.426 2.023-1.118c1.183 0.594 2.453 0.891 3.742 0.891 1.395 0 2.811-0.349 4.159-1.043 1.055 0.417 2.137 0.625 3.209 0.625 1.193 0 2.373-0.258 3.487-0.771l1.98 1.186-0.854 1.397c-0.111 0.183-0.146 0.405-0.094 0.613s0.185 0.388 0.368 0.498l4.195 2.505c0.124 0.074 0.267 0.114 0.411 0.114 0.282 0 0.539-0.144 0.686-0.385l0.751-1.233c0.231-0.379 0.111-0.875-0.268-1.106-0.126-0.077-0.27-0.117-0.418-0.117-0.283 0-0.539 0.144-0.686 0.385l-0.338 0.553-2.814-1.681 5.714-9.353 2.818 1.655-1.614 2.647c-0.231 0.379-0.111 0.874 0.267 1.106 0.126 0.077 0.271 0.117 0.418 0.117 0.283 0 0.54-0.144 0.687-0.385v-0.001l2.039-3.344c0.112-0.183 0.146-0.407 0.093-0.615zM32.914 18.842c0 0 1.852-0.966 1.856-0.968 0.618-0.338 1.076-0.878 1.305-1.532l0.471 0.276-4.432 7.27-1.669-0.999c-0 0 2.458-4.023 2.469-4.047zM16.245 3.707c0.219-0.36 0.608-0.574 1.038-0.574 0.219 0 0.435 0.059 0.624 0.171l1.53 0.906c0.276 0.163 0.47 0.421 0.546 0.727 0.075 0.3 0.027 0.611-0.135 0.876v0c-0.088 0.144-0.204 0.263-0.338 0.354-0.074 0.040-0.147 0.080-0.22 0.12-0.332 0.139-0.725 0.136-1.061-0.045l-1.573-0.931c-0 0-0-0-0-0-0.276-0.163-0.469-0.421-0.545-0.727-0.075-0.3-0.027-0.612 0.135-0.877zM14.177 7.099c0.219-0.36 0.607-0.575 1.037-0.575 0.219 0 0.435 0.059 0.624 0.171l2.678 1.585c0.276 0.163 0.47 0.421 0.546 0.727 0.075 0.3 0.027 0.612-0.135 0.877-0.329 0.54-1.053 0.732-1.617 0.43l-2.723-1.611c-0.275-0.163-0.469-0.421-0.545-0.726-0.075-0.3-0.027-0.612 0.136-0.878zM12.107 10.491c0.217-0.355 0.614-0.575 1.038-0.575 0.218 0 0.434 0.059 0.623 0.171l2.755 1.63c0.276 0.163 0.47 0.421 0.546 0.727 0.075 0.3 0.027 0.612-0.135 0.877-0.343 0.561-1.088 0.742-1.661 0.403l-2.755-1.63c-0.276-0.163-0.47-0.421-0.546-0.727-0.075-0.3-0.027-0.611 0.135-0.876zM13.23 14.384c0.276 0.163 0.47 0.422 0.546 0.727 0.075 0.3 0.027 0.612-0.135 0.877v0c-0.343 0.562-1.089 0.743-1.662 0.404l-1.53-0.906c-0.276-0.163-0.47-0.422-0.546-0.727-0.075-0.3-0.027-0.611 0.135-0.877 0.217-0.355 0.614-0.575 1.038-0.575 0.219 0 0.435 0.059 0.624 0.171l1.53 0.906zM8.81 28.583l-5.381-9.568 2.875-1.558 5.379 9.543-2.873 1.583zM11.888 24.091l-4.179-7.414 1.073-0.579c0.222 0.309 0.509 0.573 0.848 0.774l0.638 0.378 3.327 5.898-1.706 0.943zM15.28 22.864l-2.648-4.695c0.942-0.011 1.859-0.489 2.38-1.342v0c0.256-0.42 0.392-0.889 0.404-1.366 0.158 0.027 0.317 0.042 0.476 0.042 0.954 0 1.886-0.479 2.413-1.343 0.388-0.636 0.502-1.383 0.323-2.104-0.007-0.026-0.014-0.052-0.021-0.077 0.682-0.178 1.297-0.61 1.691-1.256 0.388-0.636 0.502-1.383 0.323-2.104-0.088-0.354-0.242-0.679-0.451-0.966 0.072-0.039 6.885-3.719 6.901-3.727 0.003-0.001 0.006-0.003 0.008-0.004 0.287-0.157 0.619-0.194 0.934-0.106 0.312 0.088 0.569 0.288 0.725 0.565 0.152 0.271 0.189 0.585 0.104 0.884-0.088 0.306-0.293 0.561-0.578 0.717l-0.002 0.001c-0 0-0 0-0.001 0l-4.476 2.445c-0.39 0.213-0.533 0.701-0.32 1.091 0.146 0.267 0.422 0.419 0.706 0.419 0.13 0 0.262-0.032 0.384-0.098l5.257-2.872c0.287-0.157 0.619-0.194 0.934-0.106 0.32 0.090 0.581 0.297 0.736 0.584 0.303 0.561 0.067 1.281-0.524 1.604l-5.219 2.851c-0.39 0.213-0.533 0.702-0.32 1.091 0.146 0.268 0.421 0.419 0.706 0.419 0.13 0 0.262-0.032 0.384-0.098l4.872-2.662c0.285-0.154 0.614-0.19 0.927-0.102 0.312 0.088 0.57 0.288 0.725 0.565 0.152 0.271 0.189 0.585 0.104 0.883-0.088 0.307-0.294 0.562-0.575 0.716l-4.919 2.529c-0.395 0.202-0.552 0.687-0.35 1.082 0.142 0.278 0.424 0.438 0.716 0.438 0.123 0 0.248-0.028 0.365-0.088l4.458-2.28c0.283-0.15 0.609-0.185 0.919-0.098 0.312 0.088 0.57 0.288 0.725 0.565 0.153 0.271 0.189 0.585 0.104 0.884-0.087 0.305-0.291 0.558-0.574 0.715l-11.939 6.227c-0.005 0.002-0.009 0.005-0.014 0.007-2.263 1.236-4.659 1.295-6.773 0.171zM24.674 23.14l5.481-2.859-1.385 2.266c-1.291 0.628-2.698 0.826-4.096 0.593z"></path>
</symbol>
<symbol id="icon-arrow-up" viewBox="0 0 20 9">
    <path d="M1.86897 8L9.93793 2.21739L18.131 7.86956L19 7.21739L9.87586 1L1 7.39131L1.86897 8Z" fill="white" stroke="white"/>
</symbol>
</defs>
</svg>
