<svg width="496" height="237" viewBox="0 0 496 237" fill="none" xmlns="http://www.w3.org/2000/svg">
<path d="M77.8 187C76.4667 187 75.2667 186.533 74.2 185.6C73.2667 184.533 72.8 183.333 72.8 182V159.4H10.6C9.13333 159.4 7.93333 158.933 7 158C6.06667 157.067 5.6 155.867 5.6 154.4V135.4C5.6 133.4 6.33333 131.333 7.8 129.2L66 50.4C67.8667 48.1333 70.3333 47 73.4 47H102.6C104.067 47 105.267 47.4667 106.2 48.4C107.133 49.3333 107.6 50.5333 107.6 52V129.6H125.2C126.8 129.6 128.067 130.133 129 131.2C129.933 132.133 130.4 133.267 130.4 134.6V154.4C130.4 155.867 129.933 157.067 129 158C128.067 158.933 126.867 159.4 125.4 159.4H107.6V182C107.6 183.333 107.133 184.533 106.2 185.6C105.267 186.533 104.067 187 102.6 187H77.8ZM73.6 131V83.8L40 131H73.6Z" fill="#D99A6C"/>
<path d="M436.8 187C435.467 187 434.267 186.533 433.2 185.6C432.267 184.533 431.8 183.333 431.8 182V159.4H369.6C368.133 159.4 366.933 158.933 366 158C365.067 157.067 364.6 155.867 364.6 154.4V135.4C364.6 133.4 365.333 131.333 366.8 129.2L425 50.4C426.867 48.1333 429.333 47 432.4 47H461.6C463.067 47 464.267 47.4667 465.2 48.4C466.133 49.3333 466.6 50.5333 466.6 52V129.6H484.2C485.8 129.6 487.067 130.133 488 131.2C488.933 132.133 489.4 133.267 489.4 134.6V154.4C489.4 155.867 488.933 157.067 488 158C487.067 158.933 485.867 159.4 484.4 159.4H466.6V182C466.6 183.333 466.133 184.533 465.2 185.6C464.267 186.533 463.067 187 461.6 187H436.8ZM432.6 131V83.8L399 131H432.6Z" fill="#D99A6C"/>
<path fill-rule="evenodd" clip-rule="evenodd" d="M317.175 132.727C316.985 133.524 316.789 134.316 316.572 135.114C306.427 172.445 267.502 194.6 229.63 184.598C191.763 174.596 169.291 136.216 179.436 98.8847C186.834 71.6728 209.524 52.5254 235.948 48.0195C213.383 96.5568 256.911 157.627 317.175 132.727Z" fill="#6C1515"/>
<path fill-rule="evenodd" clip-rule="evenodd" d="M266.38 49.3947C303.432 59.1824 325.742 96.1499 317.171 132.721C303.372 154.957 275.917 166.601 249.064 159.511C216.408 150.884 197.019 117.775 205.774 85.5595C210.323 68.8256 221.587 55.6237 235.944 48.0193C245.769 46.3444 256.115 46.6868 266.38 49.3947Z" fill="#E63017"/>
<path fill-rule="evenodd" clip-rule="evenodd" d="M282.85 56.0056C289.028 59.4305 292.225 61.3409 296.991 66.2749C311.56 102.038 277.401 179.987 243.122 186.826C239.572 186.585 236.082 186.077 232.51 185.285C248.197 186.633 269.931 162.327 282.639 128.362C294.836 95.7719 294.559 65.4241 282.85 56.0056ZM219.184 180.961C217.197 180.094 215.265 179.136 213.387 178.109C251.992 178.456 286.585 55.326 250.314 47.0366C254.744 47.1811 259.211 47.743 263.678 48.7437C277.449 55.3313 279.914 85.6149 268.536 120.217C256.942 155.478 235.208 182.042 219.184 180.961Z" fill="#C9996E"/>
<path fill-rule="evenodd" clip-rule="evenodd" d="M282.847 56.0056C289.019 59.4305 292.216 61.3409 296.982 66.2749C306.72 90.1797 294.686 132.927 275.4 160.69C272.111 161.257 268.762 161.562 265.369 161.584C271.861 152.422 277.875 141.066 282.63 128.362C294.827 95.7719 294.55 65.4241 282.847 56.0056ZM249.095 159.523L249.063 159.513C246.555 158.849 244.123 158.041 241.778 157.099C265.271 121.646 277.039 53.1479 250.306 47.0366C254.73 47.1811 259.203 47.743 263.67 48.7437C277.441 55.3313 279.905 85.6149 268.528 120.222C263.518 135.453 256.613 149.061 249.095 159.523Z" fill="white"/>
</svg>
