<svg width="21" height="21" viewBox="0 0 21 21" fill="none" xmlns="http://www.w3.org/2000/svg">
<path d="M7.60985 17.3817L19.5105 5.42491C20.1631 4.77226 20.1632 3.7157 19.5105 3.06297L17.9362 1.48826C17.2852 0.837091 16.2258 0.837091 15.5738 1.48919C12.004 5.07583 7.23382 9.86854 3.66382 13.4554C3.62218 13.4971 3.57746 13.5598 3.55015 13.6209C3.52417 13.679 1.0607 19.1899 1.04734 19.2204C0.885099 19.5911 1.16067 20 1.55737 20C1.55748 20 1.5576 20 1.55774 20H14.9902C15.2976 20 15.5468 19.7507 15.5468 19.4433C15.5468 19.1358 15.2975 18.8866 14.9902 18.8866H4.24443L7.42805 17.5083C7.4961 17.4788 7.56045 17.4328 7.60985 17.3817ZM16.3618 2.27561C16.5789 2.05852 16.932 2.05856 17.149 2.27561L18.7234 3.85028C18.9375 4.06448 18.9446 4.41635 18.7225 4.63849L17.5453 5.8212L15.1838 3.45926L16.3618 2.27561ZM14.3984 4.24832L16.7599 6.61026L15.1891 8.1885L12.8276 5.82655L14.3984 4.24832ZM2.64943 18.3638L4.23641 14.8136L6.23427 16.8118L2.64943 18.3638ZM4.84456 13.8472L12.0422 6.61565L14.4038 8.97759L7.2061 16.2091L4.84456 13.8472Z" fill="#6C1515" stroke="#6C1515" stroke-width="0.25"/>
</svg>
