<svg width="10" height="10" viewBox="0 0 10 10" fill="none" xmlns="http://www.w3.org/2000/svg">
<path fill-rule="evenodd" clip-rule="evenodd" d="M9.87108 6.12315C9.8577 6.1801 9.84394 6.23668 9.82865 6.29364C9.11423 8.96033 6.37312 10.5429 3.70617 9.82846C1.03961 9.11401 -0.542897 6.37238 0.171525 3.70569C0.69253 1.76186 2.29033 0.394104 4.15111 0.0722351C2.56211 3.5394 5.62736 7.90184 9.87108 6.12315Z" fill="#919191"/>
<path fill-rule="evenodd" clip-rule="evenodd" d="M6.29441 0.171058C8.90364 0.870225 10.4747 3.51093 9.87111 6.12334C8.89943 7.71166 6.96602 8.54348 5.07504 8.03697C2.77543 7.42076 1.41004 5.05567 2.0266 2.75442C2.34693 1.55907 3.14009 0.616017 4.15114 0.072815C4.84301 -0.0468347 5.57158 -0.0223696 6.29441 0.171058Z" fill="#ABABAB"/>
<path fill-rule="evenodd" clip-rule="evenodd" d="M7.45376 0.643121C7.88876 0.887772 8.1139 1.02424 8.44952 1.37669C9.47547 3.93139 7.06999 9.49949 4.65609 9.98803C4.4061 9.97083 4.16031 9.93451 3.90879 9.87794C5.01349 9.97427 6.54401 8.23801 7.43885 5.81176C8.29776 3.48375 8.27827 1.31591 7.45376 0.643121ZM2.97037 9.56906C2.83047 9.50714 2.69439 9.43871 2.56213 9.36532C5.28068 9.39016 7.71675 0.594574 5.16257 0.00244141C5.47448 0.0127626 5.78907 0.0529005 6.10366 0.124385C7.07343 0.594956 7.24696 2.75821 6.44577 5.22995C5.62929 7.74871 4.09877 9.64628 2.97037 9.56906Z" fill="white"/>
<path fill-rule="evenodd" clip-rule="evenodd" d="M7.4541 0.643121C7.88871 0.887773 8.11386 1.02424 8.44947 1.37669C9.13522 3.08428 8.28778 6.13783 6.92965 8.12104C6.69801 8.16156 6.46217 8.18335 6.22326 8.18488C6.68043 7.53043 7.10396 6.71926 7.43881 5.81176C8.29771 3.48375 8.27822 1.31591 7.4541 0.643121ZM5.07728 8.0377L5.07499 8.03694C4.89839 7.98954 4.72714 7.93181 4.56201 7.86453C6.21638 5.33201 7.04509 0.438991 5.16253 0.00244141C5.47406 0.0127626 5.78903 0.0529005 6.10362 0.124385C7.07338 0.594956 7.24692 2.75821 6.44573 5.23033C6.09291 6.31826 5.60669 7.29037 5.07728 8.0377Z" fill="white"/>
</svg>
