<svg width="10" height="10" viewBox="0 0 10 10" fill="none" xmlns="http://www.w3.org/2000/svg">
<path fill-rule="evenodd" clip-rule="evenodd" d="M9.87108 6.12318C9.8577 6.18013 9.84394 6.23671 9.82865 6.29367C9.11423 8.96036 6.37312 10.543 3.70617 9.82849C1.03961 9.11404 -0.542897 6.37241 0.171525 3.70572C0.69253 1.76189 2.29033 0.394135 4.15111 0.0722656C2.56211 3.53943 5.62736 7.90187 9.87108 6.12318Z" fill="#B74848"/>
<path fill-rule="evenodd" clip-rule="evenodd" d="M6.29453 0.171058C8.90376 0.870225 10.4748 3.51093 9.87123 6.12334C8.89956 7.71166 6.96614 8.54348 5.07516 8.03697C2.77555 7.42076 1.41016 5.05567 2.02673 2.75442C2.34705 1.55907 3.14021 0.616017 4.15126 0.072815C4.84313 -0.0468347 5.5717 -0.0223696 6.29453 0.171058Z" fill="#D96C6C"/>
<path fill-rule="evenodd" clip-rule="evenodd" d="M7.45364 0.643121C7.88864 0.887772 8.11378 1.02424 8.4494 1.37669C9.47535 3.93139 7.06986 9.49949 4.65597 9.98803C4.40598 9.97083 4.16019 9.93451 3.90867 9.87794C5.01337 9.97427 6.54389 8.23801 7.43873 5.81176C8.29764 3.48375 8.27815 1.31591 7.45364 0.643121ZM2.97025 9.56906C2.83035 9.50714 2.69427 9.43871 2.56201 9.36532C5.28056 9.39016 7.71663 0.594574 5.16245 0.00244141C5.47436 0.0127626 5.78895 0.0529005 6.10354 0.124385C7.0733 0.594956 7.24684 2.75821 6.44565 5.22995C5.62917 7.74871 4.09865 9.64628 2.97025 9.56906Z" fill="white"/>
<path fill-rule="evenodd" clip-rule="evenodd" d="M7.4541 0.643121C7.88871 0.887773 8.11386 1.02424 8.44947 1.37669C9.13522 3.08428 8.28778 6.13783 6.92965 8.12104C6.69801 8.16156 6.46217 8.18335 6.22326 8.18488C6.68043 7.53043 7.10396 6.71926 7.43881 5.81176C8.29771 3.48375 8.27822 1.31591 7.4541 0.643121ZM5.07728 8.0377L5.07499 8.03694C4.89839 7.98954 4.72714 7.93181 4.56201 7.86453C6.21638 5.33201 7.04509 0.438991 5.16253 0.00244141C5.47406 0.0127626 5.78903 0.0529005 6.10362 0.124385C7.07338 0.594956 7.24692 2.75821 6.44573 5.23033C6.09291 6.31826 5.60669 7.29037 5.07728 8.0377Z" fill="white"/>
</svg>
