<svg width="24" height="21" viewBox="0 0 24 21" fill="none" xmlns="http://www.w3.org/2000/svg">
<path d="M14.093 8.47008H6.85138C6.6022 8.47008 6.40019 8.74981 6.40019 9.09486C6.40019 9.43991 6.6022 9.71964 6.85138 9.71964H14.093C14.3423 9.71964 14.5442 9.43991 14.5442 9.09486C14.5442 8.74981 14.3422 8.47008 14.093 8.47008Z" fill="#6C1515"/>
<path d="M14.093 11.3024H6.85138C6.6022 11.3024 6.40019 11.5822 6.40019 11.9272C6.40019 12.2723 6.6022 12.552 6.85138 12.552H14.093C14.3423 12.552 14.5442 12.2723 14.5442 11.9272C14.5442 11.5822 14.3422 11.3024 14.093 11.3024Z" fill="#6C1515"/>
<path d="M22.3753 3.89608H19.9583V1.62478C19.9583 1.27974 19.6793 1 19.3351 1H1.6218C1.27751 1 0.998535 1.27974 0.998535 1.62478V17.852C0.998535 19.0364 1.9597 20 3.14116 20H20.8551C22.037 20 22.9985 19.0364 22.9985 17.852V4.52086C22.9985 4.17582 22.7196 3.89608 22.3753 3.89608ZM2.24507 17.852V2.24957H18.7118V17.852C18.7118 18.1727 18.7828 18.4769 18.909 18.7504H3.14116C2.64695 18.7504 2.24507 18.3473 2.24507 17.852ZM20.8551 18.7504C20.3606 18.7504 19.9583 18.3474 19.9583 17.852V5.14565H21.752V17.8519C21.752 18.3473 21.3497 18.7504 20.8551 18.7504Z" fill="#6C1515"/>
<path d="M14.093 8.47008H6.85138C6.6022 8.47008 6.40019 8.74981 6.40019 9.09486C6.40019 9.43991 6.6022 9.71964 6.85138 9.71964H14.093C14.3423 9.71964 14.5442 9.43991 14.5442 9.09486C14.5442 8.74981 14.3422 8.47008 14.093 8.47008Z" stroke="#6C1515" stroke-width="0.15"/>
<path d="M14.093 11.3024H6.85138C6.6022 11.3024 6.40019 11.5822 6.40019 11.9272C6.40019 12.2723 6.6022 12.552 6.85138 12.552H14.093C14.3423 12.552 14.5442 12.2723 14.5442 11.9272C14.5442 11.5822 14.3422 11.3024 14.093 11.3024Z" stroke="#6C1515" stroke-width="0.15"/>
<path d="M22.3753 3.89608H19.9583V1.62478C19.9583 1.27974 19.6793 1 19.3351 1H1.6218C1.27751 1 0.998535 1.27974 0.998535 1.62478V17.852C0.998535 19.0364 1.9597 20 3.14116 20H20.8551C22.037 20 22.9985 19.0364 22.9985 17.852V4.52086C22.9985 4.17582 22.7196 3.89608 22.3753 3.89608ZM2.24507 17.852V2.24957H18.7118V17.852C18.7118 18.1727 18.7828 18.4769 18.909 18.7504H3.14116C2.64695 18.7504 2.24507 18.3473 2.24507 17.852ZM20.8551 18.7504C20.3606 18.7504 19.9583 18.3474 19.9583 17.852V5.14565H21.752V17.8519C21.752 18.3473 21.3497 18.7504 20.8551 18.7504Z" stroke="#6C1515" stroke-width="0.15"/>
</svg>
