<svg width="32" height="21" viewBox="0 0 32 21" fill="none" xmlns="http://www.w3.org/2000/svg">
<path d="M26.9458 9.36024C27.8243 8.74447 28.406 7.72016 28.406 6.5656C28.406 4.67685 26.8746 3.14927 24.981 3.14927C23.0875 3.14927 21.556 4.67685 21.556 6.5656C21.556 7.72016 22.1318 8.74447 23.0162 9.36024C22.2624 9.62075 21.5738 10.0234 20.9921 10.5444C20.1907 9.86351 19.2469 9.34247 18.2141 9.03459C19.4666 8.27672 20.3095 6.89716 20.3095 5.32814C20.3095 2.93612 18.3684 1 15.9703 1C13.5722 1 11.6312 2.94204 11.6312 5.32814C11.6312 6.89716 12.4681 8.27672 13.7266 9.03459C12.7056 9.34247 11.7736 9.85759 10.9782 10.5266C10.3965 10.0175 9.71983 9.62075 8.97784 9.36616C9.85635 8.75039 10.4381 7.72608 10.4381 6.57152C10.4381 4.68277 8.90661 3.15519 7.01306 3.15519C5.11951 3.15519 3.58805 4.68277 3.58805 6.57152C3.58805 7.72608 4.16383 8.75039 5.04828 9.36616C2.69173 10.1773 1 12.4095 1 15.0324V15.4232C1 15.435 1.01187 15.4469 1.02374 15.4469H8.28334C8.24179 15.7725 8.21805 16.11 8.21805 16.4475V16.8501C8.21805 18.5908 9.63079 20 11.3759 20H20.5766C22.3217 20 23.7345 18.5908 23.7345 16.8501V16.4475C23.7345 16.11 23.7107 15.7725 23.6692 15.4469H30.9763C30.9881 15.4469 31 15.435 31 15.4232V15.0324C30.9881 12.4036 29.3023 10.1714 26.9458 9.36024ZM22.5057 6.55968C22.5057 5.19788 23.6157 4.09068 24.981 4.09068C26.3463 4.09068 27.4563 5.19788 27.4563 6.55968C27.4563 7.90371 26.37 8.99907 25.0285 9.02867C25.0107 9.02867 24.9988 9.02867 24.981 9.02867C24.9632 9.02867 24.9513 9.02867 24.9335 9.02867C23.5861 9.00499 22.5057 7.90963 22.5057 6.55968ZM12.5691 5.32814C12.5691 3.46307 14.0886 1.94734 15.9584 1.94734C17.8283 1.94734 19.3478 3.46307 19.3478 5.32814C19.3478 7.12808 17.9292 8.60237 16.1543 8.70302C16.089 8.70302 16.0237 8.70302 15.9584 8.70302C15.8932 8.70302 15.8279 8.70302 15.7626 8.70302C13.9877 8.60237 12.5691 7.12808 12.5691 5.32814ZM4.51998 6.55968C4.51998 5.19788 5.63 4.09068 6.99525 4.09068C8.36051 4.09068 9.47052 5.19788 9.47052 6.55968C9.47052 7.90371 8.38425 8.99907 7.04274 9.02867C7.02493 9.02867 7.01306 9.02867 6.99525 9.02867C6.97744 9.02867 6.96557 9.02867 6.94776 9.02867C5.60625 9.00499 4.51998 7.90963 4.51998 6.55968ZM8.44954 14.4936H1.96161C2.22873 11.9713 4.36565 9.99377 6.95964 9.97601C6.97151 9.97601 6.98338 9.97601 6.99525 9.97601C7.00712 9.97601 7.01899 9.97601 7.03087 9.97601C8.26553 9.98193 9.39335 10.4378 10.2659 11.1779C9.41116 12.1016 8.77602 13.2384 8.44954 14.4936ZM22.7729 16.8501C22.7729 18.0639 21.7816 19.0527 20.5647 19.0527H11.3641C10.1472 19.0527 9.15592 18.0639 9.15592 16.8501V16.4475C9.15592 12.7706 12.1001 9.76285 15.7626 9.65628C15.8279 9.6622 15.8991 9.6622 15.9644 9.6622C16.0297 9.6622 16.1009 9.6622 16.1662 9.65628C19.8287 9.76285 22.7729 12.7706 22.7729 16.4475V16.8501ZM23.4792 14.4936C23.1528 13.2443 22.5295 12.1253 21.6806 11.2016C22.5592 10.4438 23.6989 9.98785 24.9454 9.97601C24.9573 9.97601 24.9691 9.97601 24.981 9.97601C24.9929 9.97601 25.0047 9.97601 25.0166 9.97601C27.6106 9.99377 29.7475 11.9713 30.0146 14.4936H23.4792Z" fill="#6C1515" stroke="#6C1515" stroke-width="0.4"/>
</svg>
