<svg width="27" height="21" viewBox="0 0 27 21" fill="none" xmlns="http://www.w3.org/2000/svg">
<path d="M23.5502 17.6989H22.4231V19.4943C22.4231 19.7736 22.1957 20 21.9152 20C21.6347 20 21.4074 19.7736 21.4074 19.4943V17.6989H5.59263V19.4943C5.59263 19.7736 5.36527 20 5.08479 20C4.8043 20 4.57694 19.7736 4.57694 19.4943V17.6989H3.44992C2.09905 17.6989 1 16.6045 1 15.2594V3.43948C1 2.09437 2.09905 1 3.44992 1H23.5502C24.901 1 26 2.09437 26 3.43948V15.2594C26 16.6045 24.901 17.6989 23.5502 17.6989ZM24.9843 15.2594V13.2695H14.0082V16.6876H23.5502C24.3409 16.6876 24.9843 16.0469 24.9843 15.2594ZM3.44992 16.6876H12.9925V13.2695H2.01569V15.2594C2.01569 16.0469 2.65909 16.6876 3.44992 16.6876ZM2.01569 3.43956V12.2583H12.9925V2.01144H3.44992C2.65909 2.01144 2.01569 2.6521 2.01569 3.43956ZM23.5502 2.01144H14.0082V12.2583H24.9843V3.43956C24.9843 2.6521 24.3409 2.01144 23.5502 2.01144Z" fill="#6C1515"/>
<path d="M7.56596 10.7793H7.44251C6.22751 10.7793 5.23901 9.79504 5.23901 8.58522V5.70284C5.23901 4.49301 6.22751 3.50872 7.44251 3.50872H7.56596C8.78095 3.50872 9.76945 4.49301 9.76945 5.70284V8.58522C9.76945 9.79504 8.78095 10.7793 7.56596 10.7793ZM8.75377 5.70284C8.75377 5.05066 8.22092 4.52009 7.56596 4.52009H7.44251C6.78755 4.52009 6.2547 5.05066 6.2547 5.70284V8.58522C6.2547 9.23739 6.78755 9.76797 7.44251 9.76797H7.56596C8.22092 9.76797 8.75377 9.23739 8.75377 8.58522V5.70284Z" fill="#6C1515"/>
<path d="M19.5635 10.7793H19.4401C18.2251 10.7793 17.2366 9.79504 17.2366 8.58522V5.70284C17.2366 4.49301 18.2251 3.50872 19.4401 3.50872H19.5635C20.7785 3.50872 21.767 4.49301 21.767 5.70284V8.58522C21.767 9.79504 20.7785 10.7793 19.5635 10.7793ZM20.7513 5.70284C20.7513 5.05066 20.2185 4.52009 19.5635 4.52009H19.4401C18.7851 4.52009 18.2522 5.05066 18.2522 5.70284V8.58522C18.2522 9.23739 18.7851 9.76797 19.4401 9.76797H19.5635C20.2185 9.76797 20.7513 9.23739 20.7513 8.58522V5.70284Z" fill="#6C1515"/>
<path d="M23.5502 17.6989H22.4231V19.4943C22.4231 19.7736 22.1957 20 21.9152 20C21.6347 20 21.4074 19.7736 21.4074 19.4943V17.6989H5.59263V19.4943C5.59263 19.7736 5.36527 20 5.08479 20C4.8043 20 4.57694 19.7736 4.57694 19.4943V17.6989H3.44992C2.09905 17.6989 1 16.6045 1 15.2594V3.43948C1 2.09437 2.09905 1 3.44992 1H23.5502C24.901 1 26 2.09437 26 3.43948V15.2594C26 16.6045 24.901 17.6989 23.5502 17.6989ZM24.9843 15.2594V13.2695H14.0082V16.6876H23.5502C24.3409 16.6876 24.9843 16.0469 24.9843 15.2594ZM3.44992 16.6876H12.9925V13.2695H2.01569V15.2594C2.01569 16.0469 2.65909 16.6876 3.44992 16.6876ZM2.01569 3.43956V12.2583H12.9925V2.01144H3.44992C2.65909 2.01144 2.01569 2.6521 2.01569 3.43956ZM23.5502 2.01144H14.0082V12.2583H24.9843V3.43956C24.9843 2.6521 24.3409 2.01144 23.5502 2.01144Z" stroke="#6C1515" stroke-width="0.4"/>
<path d="M7.56596 10.7793H7.44251C6.22751 10.7793 5.23901 9.79504 5.23901 8.58522V5.70284C5.23901 4.49301 6.22751 3.50872 7.44251 3.50872H7.56596C8.78095 3.50872 9.76945 4.49301 9.76945 5.70284V8.58522C9.76945 9.79504 8.78095 10.7793 7.56596 10.7793ZM8.75377 5.70284C8.75377 5.05066 8.22092 4.52009 7.56596 4.52009H7.44251C6.78755 4.52009 6.2547 5.05066 6.2547 5.70284V8.58522C6.2547 9.23739 6.78755 9.76797 7.44251 9.76797H7.56596C8.22092 9.76797 8.75377 9.23739 8.75377 8.58522V5.70284Z" stroke="#6C1515" stroke-width="0.4"/>
<path d="M19.5635 10.7793H19.4401C18.2251 10.7793 17.2366 9.79504 17.2366 8.58522V5.70284C17.2366 4.49301 18.2251 3.50872 19.4401 3.50872H19.5635C20.7785 3.50872 21.767 4.49301 21.767 5.70284V8.58522C21.767 9.79504 20.7785 10.7793 19.5635 10.7793ZM20.7513 5.70284C20.7513 5.05066 20.2185 4.52009 19.5635 4.52009H19.4401C18.7851 4.52009 18.2522 5.05066 18.2522 5.70284V8.58522C18.2522 9.23739 18.7851 9.76797 19.4401 9.76797H19.5635C20.2185 9.76797 20.7513 9.23739 20.7513 8.58522V5.70284Z" stroke="#6C1515" stroke-width="0.4"/>
</svg>
