<svg width="22" height="21" viewBox="0 0 22 21" fill="none" xmlns="http://www.w3.org/2000/svg">
<path d="M19.0645 2.47379H16.4839V1.63732C16.4839 1.28536 16.195 1 15.8387 1C15.4824 1 15.1935 1.28536 15.1935 1.63732V2.47379H11.6452V1.63732C11.6452 1.28536 11.3563 1 11 1C10.6437 1 10.3548 1.28536 10.3548 1.63732V2.47379H6.80645V1.63732C6.80645 1.28536 6.51758 1 6.16129 1C5.805 1 5.51613 1.28536 5.51613 1.63732V2.47379H2.93548C1.86827 2.47379 1 3.3315 1 4.38574V18.0881C1 19.1423 1.86827 20 2.93548 20H19.0645C20.1317 20 21 19.1423 21 18.0881V4.38574C21 3.3315 20.1317 2.47379 19.0645 2.47379ZM19.7097 18.0881C19.7097 18.4395 19.4202 18.7254 19.0645 18.7254H2.93548C2.57976 18.7254 2.29032 18.4395 2.29032 18.0881V8.48847H16.8871C17.2434 8.48847 17.5323 8.20311 17.5323 7.85115C17.5323 7.4992 17.2434 7.21384 16.8871 7.21384H2.29032V4.38574C2.29032 4.03434 2.57976 3.74843 2.93548 3.74843H5.51613V4.58491C5.51613 4.93686 5.805 5.22222 6.16129 5.22222C6.51758 5.22222 6.80645 4.93686 6.80645 4.58491V3.74843H10.3548V4.58491C10.3548 4.93686 10.6437 5.22222 11 5.22222C11.3563 5.22222 11.6452 4.93686 11.6452 4.58491V3.74843H15.1935V4.58491C15.1935 4.93686 15.4824 5.22222 15.8387 5.22222C16.195 5.22222 16.4839 4.93686 16.4839 4.58491V3.74843H19.0645C19.4202 3.74843 19.7097 4.03434 19.7097 4.38574V18.0881ZM10.1129 15.0332V15.4591H12.5323C12.8885 15.4591 13.1774 15.7445 13.1774 16.0964C13.1774 16.4484 12.8885 16.7338 12.5323 16.7338H9.46774C9.11145 16.7338 8.82258 16.4484 8.82258 16.0964V15.0332C8.82258 14.1233 9.44673 13.3336 10.3404 13.1129L11.3467 12.8644C11.6649 12.7858 11.8871 12.5047 11.8871 12.1807C11.8871 11.7921 11.5671 11.4759 11.1737 11.4759H9.46774C9.11145 11.4759 8.82258 11.1906 8.82258 10.8386C8.82258 10.4867 9.11145 10.2013 9.46774 10.2013H11.1737C12.2785 10.2013 13.1774 11.0892 13.1774 12.1807C13.1774 13.0906 12.5533 13.8802 11.6596 14.101L10.6533 14.3495C10.3351 14.4281 10.1129 14.7092 10.1129 15.0332Z" fill="#6C1515" stroke="#6C1515" stroke-width="0.1"/>
</svg>
