<svg width="21" height="21" viewBox="0 0 21 21" fill="none" xmlns="http://www.w3.org/2000/svg">
<path d="M13.5645 14.1774H12.6452C12.4759 14.1774 12.3387 14.3146 12.3387 14.4839C12.3387 14.6531 12.4759 14.7903 12.6452 14.7903H13.5645C13.7338 14.7903 13.871 14.6531 13.871 14.4839C13.871 14.3146 13.7338 14.1774 13.5645 14.1774Z" fill="#6C1515"/>
<path d="M15.4032 14.1774H14.4839C14.3146 14.1774 14.1774 14.3146 14.1774 14.4839C14.1774 14.6531 14.3146 14.7903 14.4839 14.7903H15.4032C15.5725 14.7903 15.7097 14.6531 15.7097 14.4839C15.7097 14.3146 15.5725 14.1774 15.4032 14.1774Z" fill="#6C1515"/>
<path d="M17.2419 14.1774H16.3226C16.1533 14.1774 16.0161 14.3146 16.0161 14.4839C16.0161 14.6531 16.1533 14.7903 16.3226 14.7903H17.2419C17.4112 14.7903 17.5484 14.6531 17.5484 14.4839C17.5484 14.3146 17.4112 14.1774 17.2419 14.1774Z" fill="#6C1515"/>
<path d="M18.4677 1H2.53226C1.68637 1.00105 1.00105 1.68637 1 2.53226V18.4677C1.00105 19.3136 1.68637 19.999 2.53226 20H18.4677C19.3136 19.999 19.999 19.3136 20 18.4677V2.53226C19.999 1.68637 19.3136 1.00105 18.4677 1ZM19.3871 18.4677C19.3871 18.9755 18.9755 19.3871 18.4677 19.3871H2.53226C2.02455 19.3871 1.6129 18.9755 1.6129 18.4677V2.53226C1.6129 2.02455 2.02455 1.6129 2.53226 1.6129H18.4677C18.9755 1.6129 19.3871 2.02455 19.3871 2.53226V18.4677Z" fill="#6C1515"/>
<path d="M18.4677 10.1935H10.8065V2.53226C10.8065 2.36302 10.6692 2.22581 10.5 2.22581C10.3308 2.22581 10.1935 2.36302 10.1935 2.53226V10.1935H2.53226C2.36302 10.1935 2.22581 10.3308 2.22581 10.5C2.22581 10.6692 2.36302 10.8065 2.53226 10.8065H10.1935V18.4677C10.1935 18.637 10.3308 18.7742 10.5 18.7742C10.6692 18.7742 10.8065 18.637 10.8065 18.4677V10.8065H18.4677C18.637 10.8065 18.7742 10.6692 18.7742 10.5C18.7742 10.3308 18.637 10.1935 18.4677 10.1935Z" fill="#6C1515"/>
<path d="M5.13919 5.8748L5.90323 5.11076V8.66129C5.90323 8.83053 6.04044 8.96774 6.20968 8.96774C6.37891 8.96774 6.51613 8.83053 6.51613 8.66129V4.37097C6.51613 4.24707 6.44146 4.13529 6.32699 4.08786C6.21252 4.04043 6.08069 4.06676 5.99301 4.1543L4.70585 5.44145C4.58973 5.56161 4.59138 5.75284 4.70959 5.87105C4.8278 5.98927 5.01904 5.99091 5.13919 5.8748Z" fill="#6C1515"/>
<path d="M7.74194 13.4113C7.6966 12.6088 7.01247 11.9931 6.20968 12.0323C5.40689 11.9931 4.72276 12.6088 4.67742 13.4113C4.67742 13.5805 4.81463 13.7177 4.98387 13.7177C5.15311 13.7177 5.29032 13.5805 5.29032 13.4113C5.33686 12.9482 5.74566 12.6075 6.20968 12.6452C6.67369 12.6075 7.0825 12.9482 7.12903 13.4113C7.0825 13.8744 6.67369 14.2151 6.20968 14.1774C6.04044 14.1774 5.90323 14.3146 5.90323 14.4839C5.90323 14.6531 6.04044 14.7903 6.20968 14.7903C6.67369 14.7526 7.0825 15.0933 7.12903 15.5565C7.0825 16.0196 6.67369 16.3603 6.20968 16.3226C5.74566 16.3603 5.33686 16.0196 5.29032 15.5565C5.29032 15.3872 5.15311 15.25 4.98387 15.25C4.81463 15.25 4.67742 15.3872 4.67742 15.5565C4.72276 16.3589 5.40689 16.9747 6.20968 16.9355C7.01247 16.9747 7.6966 16.3589 7.74194 15.5565C7.73565 15.1279 7.52332 14.7287 7.17168 14.4839C7.52332 14.2391 7.73565 13.8398 7.74194 13.4113Z" fill="#6C1515"/>
<path d="M13.5032 5.96458C13.6724 5.96458 13.8096 5.82736 13.8096 5.65812C13.8096 5.11645 14.2488 4.67742 14.7903 4.67742C15.1062 4.67009 15.4005 4.83693 15.5565 5.11166C15.7237 5.41003 15.7185 5.77514 15.543 6.06872C15.0933 6.72248 14.5561 7.31174 13.9467 7.81975C13.715 8.03432 13.4894 8.24171 13.2865 8.44462C13.199 8.53231 13.1728 8.66413 13.2202 8.7786C13.2676 8.89307 13.3793 8.96774 13.5032 8.96774H16.0161C16.1854 8.96774 16.3226 8.83053 16.3226 8.66129C16.3226 8.49205 16.1854 8.35484 16.0161 8.35484H14.2693L14.3613 8.2703C15.0164 7.72353 15.5915 7.08743 16.0694 6.38071C16.3568 5.89769 16.3639 5.2978 16.0878 4.8082C15.8228 4.34284 15.3259 4.05808 14.7903 4.06452C13.9106 4.06541 13.1976 4.77827 13.1967 5.65812C13.1967 5.82736 13.3339 5.96458 13.5032 5.96458Z" fill="#6C1515"/>
<path d="M13.5645 14.1774H12.6452C12.4759 14.1774 12.3387 14.3146 12.3387 14.4839C12.3387 14.6531 12.4759 14.7903 12.6452 14.7903H13.5645C13.7338 14.7903 13.871 14.6531 13.871 14.4839C13.871 14.3146 13.7338 14.1774 13.5645 14.1774Z" stroke="#6C1515" stroke-width="0.8"/>
<path d="M15.4032 14.1774H14.4839C14.3146 14.1774 14.1774 14.3146 14.1774 14.4839C14.1774 14.6531 14.3146 14.7903 14.4839 14.7903H15.4032C15.5725 14.7903 15.7097 14.6531 15.7097 14.4839C15.7097 14.3146 15.5725 14.1774 15.4032 14.1774Z" stroke="#6C1515" stroke-width="0.8"/>
<path d="M17.2419 14.1774H16.3226C16.1533 14.1774 16.0161 14.3146 16.0161 14.4839C16.0161 14.6531 16.1533 14.7903 16.3226 14.7903H17.2419C17.4112 14.7903 17.5484 14.6531 17.5484 14.4839C17.5484 14.3146 17.4112 14.1774 17.2419 14.1774Z" stroke="#6C1515" stroke-width="0.8"/>
<path d="M18.4677 1H2.53226C1.68637 1.00105 1.00105 1.68637 1 2.53226V18.4677C1.00105 19.3136 1.68637 19.999 2.53226 20H18.4677C19.3136 19.999 19.999 19.3136 20 18.4677V2.53226C19.999 1.68637 19.3136 1.00105 18.4677 1ZM19.3871 18.4677C19.3871 18.9755 18.9755 19.3871 18.4677 19.3871H2.53226C2.02455 19.3871 1.6129 18.9755 1.6129 18.4677V2.53226C1.6129 2.02455 2.02455 1.6129 2.53226 1.6129H18.4677C18.9755 1.6129 19.3871 2.02455 19.3871 2.53226V18.4677Z" stroke="#6C1515" stroke-width="0.8"/>
<path d="M18.4677 10.1935H10.8065V2.53226C10.8065 2.36302 10.6692 2.22581 10.5 2.22581C10.3308 2.22581 10.1935 2.36302 10.1935 2.53226V10.1935H2.53226C2.36302 10.1935 2.22581 10.3308 2.22581 10.5C2.22581 10.6692 2.36302 10.8065 2.53226 10.8065H10.1935V18.4677C10.1935 18.637 10.3308 18.7742 10.5 18.7742C10.6692 18.7742 10.8065 18.637 10.8065 18.4677V10.8065H18.4677C18.637 10.8065 18.7742 10.6692 18.7742 10.5C18.7742 10.3308 18.637 10.1935 18.4677 10.1935Z" stroke="#6C1515" stroke-width="0.8"/>
<path d="M5.13919 5.8748L5.90323 5.11076V8.66129C5.90323 8.83053 6.04044 8.96774 6.20968 8.96774C6.37891 8.96774 6.51613 8.83053 6.51613 8.66129V4.37097C6.51613 4.24707 6.44146 4.13529 6.32699 4.08786C6.21252 4.04043 6.08069 4.06676 5.99301 4.1543L4.70585 5.44145C4.58973 5.56161 4.59138 5.75284 4.70959 5.87105C4.8278 5.98927 5.01904 5.99091 5.13919 5.8748Z" stroke="#6C1515" stroke-width="0.8"/>
<path d="M7.74194 13.4113C7.6966 12.6088 7.01247 11.9931 6.20968 12.0323C5.40689 11.9931 4.72276 12.6088 4.67742 13.4113C4.67742 13.5805 4.81463 13.7177 4.98387 13.7177C5.15311 13.7177 5.29032 13.5805 5.29032 13.4113C5.33686 12.9482 5.74566 12.6075 6.20968 12.6452C6.67369 12.6075 7.0825 12.9482 7.12903 13.4113C7.0825 13.8744 6.67369 14.2151 6.20968 14.1774C6.04044 14.1774 5.90323 14.3146 5.90323 14.4839C5.90323 14.6531 6.04044 14.7903 6.20968 14.7903C6.67369 14.7526 7.0825 15.0933 7.12903 15.5565C7.0825 16.0196 6.67369 16.3603 6.20968 16.3226C5.74566 16.3603 5.33686 16.0196 5.29032 15.5565C5.29032 15.3872 5.15311 15.25 4.98387 15.25C4.81463 15.25 4.67742 15.3872 4.67742 15.5565C4.72276 16.3589 5.40689 16.9747 6.20968 16.9355C7.01247 16.9747 7.6966 16.3589 7.74194 15.5565C7.73565 15.1279 7.52332 14.7287 7.17168 14.4839C7.52332 14.2391 7.73565 13.8398 7.74194 13.4113Z" stroke="#6C1515" stroke-width="0.8"/>
<path d="M13.5032 5.96458C13.6724 5.96458 13.8096 5.82736 13.8096 5.65812C13.8096 5.11645 14.2488 4.67742 14.7903 4.67742C15.1062 4.67009 15.4005 4.83693 15.5565 5.11166C15.7237 5.41003 15.7185 5.77514 15.543 6.06872C15.0933 6.72248 14.5561 7.31174 13.9467 7.81975C13.715 8.03432 13.4894 8.24171 13.2865 8.44462C13.199 8.53231 13.1728 8.66413 13.2202 8.7786C13.2676 8.89307 13.3793 8.96774 13.5032 8.96774H16.0161C16.1854 8.96774 16.3226 8.83053 16.3226 8.66129C16.3226 8.49205 16.1854 8.35484 16.0161 8.35484H14.2693L14.3613 8.2703C15.0164 7.72353 15.5915 7.08743 16.0694 6.38071C16.3568 5.89769 16.3639 5.2978 16.0878 4.8082C15.8228 4.34284 15.3259 4.05808 14.7903 4.06452C13.9106 4.06541 13.1976 4.77827 13.1967 5.65812C13.1967 5.82736 13.3339 5.96458 13.5032 5.96458Z" stroke="#6C1515" stroke-width="0.8"/>
</svg>
