<svg width="33" height="17" viewBox="0 0 33 17" fill="none" xmlns="http://www.w3.org/2000/svg">
<path d="M32.8066 8.98802C32.8678 8.92374 32.9162 8.84755 32.9492 8.76368C33.0169 8.595 33.0169 8.405 32.9492 8.23632C32.9162 8.15245 32.8678 8.07626 32.8066 8.01198L25.3401 0.202292C25.0822 -0.0674297 24.664 -0.0674297 24.4062 0.202292C24.1483 0.472014 24.1483 0.909299 24.4062 1.17902L30.7468 7.80973L0.66 7.80973C0.295515 7.80973 -3.8821e-07 8.1188 -3.71547e-07 8.5C-3.54884e-07 8.8812 0.295515 9.19027 0.66 9.19027L30.7468 9.19027L24.4062 15.821C24.1483 16.0907 24.1483 16.528 24.4062 16.7977C24.664 17.0674 25.0822 17.0674 25.3401 16.7977L32.8066 8.98802Z" fill="#6C1515"/>
</svg>
