<svg width="29" height="21" viewBox="0 0 29 21" fill="none" xmlns="http://www.w3.org/2000/svg">
<path d="M24.8984 17.1061C25.1897 17.1061 25.4258 16.8698 25.4258 16.5783C25.4258 16.2868 25.1897 16.0505 24.8984 16.0505C24.6072 16.0505 24.3711 16.2868 24.3711 16.5783C24.3711 16.8698 24.6072 17.1061 24.8984 17.1061Z" fill="#6C1515"/>
<path d="M27.9842 12.2273C27.95 12.0906 27.8608 11.9719 27.7395 11.9007L23.6649 9.4959C23.6317 9.40666 23.5916 9.31926 23.544 9.2346C23.4304 9.03257 23.2813 8.85824 23.1064 8.71516C23.0577 8.53862 22.8433 8.08821 22.7959 8.01327C22.8797 7.59004 22.8113 7.15563 22.5972 6.775C22.3848 6.39743 22.0519 6.11227 21.6489 5.959C21.8625 5.46416 21.8589 4.88613 21.5885 4.3848C21.35 3.94262 20.9502 3.62369 20.4626 3.48668C20.3112 3.44414 20.1574 3.42102 20.0039 3.41691C20.0394 3.05131 19.9626 2.68414 19.7785 2.35676C19.5383 1.92973 19.1441 1.62104 18.6685 1.4874C18.196 1.35467 17.6991 1.41061 17.2684 1.64489C17.2158 1.67286 16.3001 2.15974 15.0055 2.85625C13.9648 2.24381 12.2881 1.25903 12.2881 1.25903C12.0013 1.08962 11.6742 1 11.342 1C10.6987 1 10.0927 1.33809 9.76049 1.88255C9.50605 2.29997 9.43085 2.79043 9.54877 3.26359C9.54998 3.26844 9.55146 3.27309 9.55272 3.27794C9.0789 3.39178 8.65924 3.6885 8.40306 4.10882C8.14846 4.52614 8.07315 5.0166 8.19101 5.48981C8.19217 5.49456 8.19365 5.49915 8.19486 5.50384C7.72115 5.61774 7.30149 5.91435 7.04494 6.33467C6.81755 6.70734 6.73375 7.13837 6.80241 7.56344C6.71761 7.64641 6.63851 7.73096 6.56553 7.81662C6.20498 7.96413 5.89317 8.22248 5.68687 8.56052C5.50235 8.86299 5.41254 9.20399 5.42177 9.549L1.27627 11.8056C1.15197 11.8729 1.05985 11.9874 1.02067 12.1233C0.981484 12.2592 0.998464 12.4053 1.06781 12.5286L5.11855 19.731C5.21532 19.903 5.39419 20 5.57855 20C5.66456 20 5.75184 19.9789 5.83242 19.9345L8.64216 18.3862C8.7655 18.3182 8.85657 18.2037 8.89507 18.0682C8.93357 17.9326 8.91627 17.7873 8.84708 17.6646L8.31974 16.729L9.64712 15.9952C10.4235 16.3849 11.2569 16.5802 12.1025 16.5802C13.0177 16.5802 13.9469 16.3515 14.8321 15.8957C15.5244 16.1691 16.2345 16.3058 16.9381 16.3058C17.7208 16.3058 18.4951 16.1365 19.2266 15.8L20.526 16.5784L19.9659 17.4951C19.8931 17.6149 19.8704 17.7611 19.9042 17.8973C19.9374 18.0329 20.0255 18.1522 20.1457 18.2239L22.899 19.8679C22.9807 19.9165 23.074 19.9424 23.169 19.9424C23.3541 19.9424 23.5228 19.8479 23.6193 19.6896L24.1124 18.8805C24.2637 18.6319 24.1851 18.3063 23.9368 18.1548C23.854 18.1041 23.7596 18.0777 23.6625 18.0777C23.4769 18.0777 23.3087 18.1722 23.2122 18.3305L22.9907 18.6936L21.144 17.5906L24.8939 11.4526L26.7433 12.5388L25.6844 14.2757C25.5325 14.5243 25.6116 14.8494 25.8595 15.0014C25.9423 15.052 26.0372 15.0784 26.1337 15.0784C26.3193 15.0784 26.4881 14.9839 26.5846 14.8256V14.8251L27.923 12.6306C27.9964 12.5103 28.0185 12.3635 27.9842 12.2273ZM21.6 12.3653C21.6 12.3653 22.8151 11.7316 22.818 11.73C23.2235 11.5084 23.5243 11.1539 23.6743 10.7245L23.9836 10.9057L21.0748 15.6768L19.9798 15.0209C19.9797 15.0209 21.5926 12.3807 21.6 12.3653ZM10.6607 2.43244C10.8047 2.19647 11.0594 2.05556 11.342 2.05556C11.4856 2.05556 11.6272 2.0944 11.7514 2.16787L12.7556 2.7623C12.9367 2.86944 13.0639 3.03891 13.1138 3.23947C13.1628 3.43622 13.1313 3.64047 13.0251 3.81448V3.81453C12.9674 3.90906 12.891 3.9868 12.8034 4.04697C12.755 4.0733 12.707 4.09938 12.6589 4.1255C12.4407 4.21702 12.1833 4.21443 11.9628 4.096L10.9302 3.4852C10.9301 3.4852 10.9301 3.48515 10.93 3.48509C10.7492 3.3779 10.622 3.20854 10.5721 3.00814C10.523 2.81118 10.5545 2.60666 10.6607 2.43244ZM9.30334 4.65861C9.4473 4.42237 9.70175 4.28141 9.98388 4.28141C10.1275 4.28141 10.2691 4.32025 10.3933 4.39377L12.1509 5.43365C12.3319 5.54074 12.4591 5.71026 12.5091 5.91097C12.5582 6.10789 12.5267 6.31229 12.4205 6.48641C12.2043 6.84092 11.7294 6.96648 11.3592 6.76845L9.57207 5.711C9.3913 5.60402 9.26426 5.43476 9.21432 5.23447C9.16533 5.03755 9.19687 4.83314 9.30334 4.65861ZM7.94511 6.88472C8.08723 6.65187 8.34832 6.5072 8.62639 6.5072C8.76962 6.5072 8.91105 6.54605 9.03519 6.61951L10.8432 7.68942C11.0242 7.79651 11.1514 7.96603 11.2014 8.16675C11.2505 8.36366 11.219 8.56807 11.1128 8.74218C10.8879 9.11063 10.3989 9.22927 10.0226 9.00671L8.21464 7.93685C8.0336 7.82971 7.90641 7.66024 7.85647 7.45968C7.80742 7.26293 7.83896 7.05868 7.94511 6.88472ZM8.68192 9.43975C8.86296 9.54683 8.9901 9.71641 9.04009 9.91707C9.08913 10.114 9.05765 10.3184 8.95144 10.4925V10.4925C8.72643 10.8613 8.23705 10.9802 7.86074 10.7576L6.85652 10.1632C6.67553 10.0561 6.54834 9.88656 6.49834 9.68585C6.4493 9.48894 6.48078 9.28458 6.58699 9.11052C6.72911 8.87766 6.9902 8.733 7.26827 8.733C7.41186 8.733 7.55345 8.77184 7.6777 8.84536L8.68192 9.43975ZM5.78142 18.7576L2.24985 12.4784L4.13664 11.456L7.66673 17.7187L5.78142 18.7576ZM7.80157 15.8096L5.05917 10.9443L5.76318 10.564C5.90909 10.767 6.09693 10.94 6.31968 11.0718L6.73839 11.3196L8.92144 15.1905L7.80157 15.8096ZM10.0277 15.0046L8.28994 11.9234C8.90836 11.9159 9.5099 11.6026 9.85157 11.0426V11.0426C10.0197 10.7671 10.1091 10.4595 10.1168 10.1461C10.2206 10.1638 10.3251 10.1735 10.4293 10.1735C11.0554 10.1735 11.6672 9.85901 12.0129 9.29229C12.2674 8.87518 12.3426 8.38477 12.2248 7.91151C12.2205 7.89447 12.2155 7.87768 12.2108 7.86079C12.6586 7.74405 13.0619 7.46058 13.3206 7.03646C13.5751 6.61936 13.6503 6.12894 13.5325 5.65569C13.4747 5.42368 13.3737 5.20977 13.2366 5.02198C13.2838 4.99623 17.7548 2.58164 17.7653 2.57605C17.7671 2.5751 17.7689 2.57415 17.7707 2.57315C17.959 2.47028 18.1766 2.44564 18.3835 2.5038C18.5882 2.56132 18.7572 2.69301 18.8594 2.87461C18.9594 3.05253 18.9836 3.25841 18.9275 3.45443C18.8699 3.65546 18.7353 3.82256 18.5485 3.92505L18.5472 3.92579C18.547 3.92584 18.5469 3.92595 18.5467 3.92605L15.6093 5.5305C15.3537 5.67015 15.2595 5.99072 15.3991 6.24659C15.4948 6.42212 15.6757 6.52161 15.8624 6.52161C15.9478 6.52161 16.0344 6.50076 16.1146 6.45696L19.5648 4.57237C19.7531 4.46956 19.9708 4.44491 20.1775 4.50302C20.3874 4.56197 20.5589 4.69803 20.6603 4.88619C20.8589 5.25442 20.704 5.72688 20.3162 5.93873L16.8911 7.8096C16.6355 7.9493 16.5414 8.26998 16.681 8.52574C16.7768 8.70128 16.9576 8.80071 17.1443 8.80071C17.2297 8.80071 17.3163 8.77987 17.3966 8.73606L20.5937 6.98896C20.7809 6.88815 20.9967 6.86424 21.2022 6.92193C21.4069 6.97946 21.576 7.11114 21.6781 7.29275C21.7781 7.47061 21.8023 7.67649 21.7462 7.87251C21.6884 8.07402 21.5534 8.24143 21.3687 8.34234L18.1408 10.0021C17.8814 10.1347 17.7786 10.4527 17.9112 10.7122C18.0045 10.8949 18.1894 10.9999 18.3812 10.9999C18.4619 10.9999 18.5439 10.9813 18.6207 10.942L21.5462 9.44545C21.7321 9.34712 21.9457 9.32422 22.149 9.38137C22.3538 9.4389 22.5228 9.57058 22.6249 9.75219C22.725 9.93005 22.7492 10.1359 22.6931 10.332C22.6358 10.532 22.5022 10.6985 22.3167 10.8012L14.4815 14.8874C14.4785 14.8889 14.4755 14.8905 14.4725 14.8922C12.9875 15.7036 11.4148 15.7418 10.0277 15.0046ZM16.1923 15.1856L19.7895 13.3096L18.8804 14.7967C18.0333 15.2088 17.1097 15.3391 16.1923 15.1856Z" fill="#6C1515"/>
<path d="M24.8984 17.1061C25.1897 17.1061 25.4258 16.8698 25.4258 16.5783C25.4258 16.2868 25.1897 16.0505 24.8984 16.0505C24.6072 16.0505 24.3711 16.2868 24.3711 16.5783C24.3711 16.8698 24.6072 17.1061 24.8984 17.1061Z" stroke="#6C1515" stroke-width="0.25"/>
<path d="M27.9842 12.2273C27.95 12.0906 27.8608 11.9719 27.7395 11.9007L23.6649 9.4959C23.6317 9.40666 23.5916 9.31926 23.544 9.2346C23.4304 9.03257 23.2813 8.85824 23.1064 8.71516C23.0577 8.53862 22.8433 8.08821 22.7959 8.01327C22.8797 7.59004 22.8113 7.15563 22.5972 6.775C22.3848 6.39743 22.0519 6.11227 21.6489 5.959C21.8625 5.46416 21.8589 4.88613 21.5885 4.3848C21.35 3.94262 20.9502 3.62369 20.4626 3.48668C20.3112 3.44414 20.1574 3.42102 20.0039 3.41691C20.0394 3.05131 19.9626 2.68414 19.7785 2.35676C19.5383 1.92973 19.1441 1.62104 18.6685 1.4874C18.196 1.35467 17.6991 1.41061 17.2684 1.64489C17.2158 1.67286 16.3001 2.15974 15.0055 2.85625C13.9648 2.24381 12.2881 1.25903 12.2881 1.25903C12.0013 1.08962 11.6742 1 11.342 1C10.6987 1 10.0927 1.33809 9.76049 1.88255C9.50605 2.29997 9.43085 2.79043 9.54877 3.26359C9.54998 3.26844 9.55146 3.27309 9.55272 3.27794C9.0789 3.39178 8.65924 3.6885 8.40306 4.10882C8.14846 4.52614 8.07315 5.0166 8.19101 5.48981C8.19217 5.49456 8.19365 5.49915 8.19486 5.50384C7.72115 5.61774 7.30149 5.91435 7.04494 6.33467C6.81755 6.70734 6.73375 7.13837 6.80241 7.56344C6.71761 7.64641 6.63851 7.73096 6.56553 7.81662C6.20498 7.96413 5.89317 8.22248 5.68687 8.56052C5.50235 8.86299 5.41254 9.20399 5.42177 9.549L1.27627 11.8056C1.15197 11.8729 1.05985 11.9874 1.02067 12.1233C0.981484 12.2592 0.998464 12.4053 1.06781 12.5286L5.11855 19.731C5.21532 19.903 5.39419 20 5.57855 20C5.66456 20 5.75184 19.9789 5.83242 19.9345L8.64216 18.3862C8.7655 18.3182 8.85657 18.2037 8.89507 18.0682C8.93357 17.9326 8.91627 17.7873 8.84708 17.6646L8.31974 16.729L9.64712 15.9952C10.4235 16.3849 11.2569 16.5802 12.1025 16.5802C13.0177 16.5802 13.9469 16.3515 14.8321 15.8957C15.5244 16.1691 16.2345 16.3058 16.9381 16.3058C17.7208 16.3058 18.4951 16.1365 19.2266 15.8L20.526 16.5784L19.9659 17.4951C19.8931 17.6149 19.8704 17.7611 19.9042 17.8973C19.9374 18.0329 20.0255 18.1522 20.1457 18.2239L22.899 19.8679C22.9807 19.9165 23.074 19.9424 23.169 19.9424C23.3541 19.9424 23.5228 19.8479 23.6193 19.6896L24.1124 18.8805C24.2637 18.6319 24.1851 18.3063 23.9368 18.1548C23.854 18.1041 23.7596 18.0777 23.6625 18.0777C23.4769 18.0777 23.3087 18.1722 23.2122 18.3305L22.9907 18.6936L21.144 17.5906L24.8939 11.4526L26.7433 12.5388L25.6844 14.2757C25.5325 14.5243 25.6116 14.8494 25.8595 15.0014C25.9423 15.052 26.0372 15.0784 26.1337 15.0784C26.3193 15.0784 26.4881 14.9839 26.5846 14.8256V14.8251L27.923 12.6306C27.9964 12.5103 28.0185 12.3635 27.9842 12.2273ZM21.6 12.3653C21.6 12.3653 22.8151 11.7316 22.818 11.73C23.2235 11.5084 23.5243 11.1539 23.6743 10.7245L23.9836 10.9057L21.0748 15.6768L19.9798 15.0209C19.9797 15.0209 21.5926 12.3807 21.6 12.3653ZM10.6607 2.43244C10.8047 2.19647 11.0594 2.05556 11.342 2.05556C11.4856 2.05556 11.6272 2.0944 11.7514 2.16787L12.7556 2.7623C12.9367 2.86944 13.0639 3.03891 13.1138 3.23947C13.1628 3.43622 13.1313 3.64047 13.0251 3.81448V3.81453C12.9674 3.90906 12.891 3.9868 12.8034 4.04697C12.755 4.0733 12.707 4.09938 12.6589 4.1255C12.4407 4.21702 12.1833 4.21443 11.9628 4.096L10.9302 3.4852C10.9301 3.4852 10.9301 3.48515 10.93 3.48509C10.7492 3.3779 10.622 3.20854 10.5721 3.00814C10.523 2.81118 10.5545 2.60666 10.6607 2.43244ZM9.30334 4.65861C9.4473 4.42237 9.70175 4.28141 9.98388 4.28141C10.1275 4.28141 10.2691 4.32025 10.3933 4.39377L12.1509 5.43365C12.3319 5.54074 12.4591 5.71026 12.5091 5.91097C12.5582 6.10789 12.5267 6.31229 12.4205 6.48641C12.2043 6.84092 11.7294 6.96648 11.3592 6.76845L9.57207 5.711C9.3913 5.60402 9.26426 5.43476 9.21432 5.23447C9.16533 5.03755 9.19687 4.83314 9.30334 4.65861ZM7.94511 6.88472C8.08723 6.65187 8.34832 6.5072 8.62639 6.5072C8.76962 6.5072 8.91105 6.54605 9.03519 6.61951L10.8432 7.68942C11.0242 7.79651 11.1514 7.96603 11.2014 8.16675C11.2505 8.36366 11.219 8.56807 11.1128 8.74218C10.8879 9.11063 10.3989 9.22927 10.0226 9.00671L8.21464 7.93685C8.0336 7.82971 7.90641 7.66024 7.85647 7.45968C7.80742 7.26293 7.83896 7.05868 7.94511 6.88472ZM8.68192 9.43975C8.86296 9.54683 8.9901 9.71641 9.04009 9.91707C9.08913 10.114 9.05765 10.3184 8.95144 10.4925V10.4925C8.72643 10.8613 8.23705 10.9802 7.86074 10.7576L6.85652 10.1632C6.67553 10.0561 6.54834 9.88656 6.49834 9.68585C6.4493 9.48894 6.48078 9.28458 6.58699 9.11052C6.72911 8.87766 6.9902 8.733 7.26827 8.733C7.41186 8.733 7.55345 8.77184 7.6777 8.84536L8.68192 9.43975ZM5.78142 18.7576L2.24985 12.4784L4.13664 11.456L7.66673 17.7187L5.78142 18.7576ZM7.80157 15.8096L5.05917 10.9443L5.76318 10.564C5.90909 10.767 6.09693 10.94 6.31968 11.0718L6.73839 11.3196L8.92144 15.1905L7.80157 15.8096ZM10.0277 15.0046L8.28994 11.9234C8.90836 11.9159 9.5099 11.6026 9.85157 11.0426V11.0426C10.0197 10.7671 10.1091 10.4595 10.1168 10.1461C10.2206 10.1638 10.3251 10.1735 10.4293 10.1735C11.0554 10.1735 11.6672 9.85901 12.0129 9.29229C12.2674 8.87518 12.3426 8.38477 12.2248 7.91151C12.2205 7.89447 12.2155 7.87768 12.2108 7.86079C12.6586 7.74405 13.0619 7.46058 13.3206 7.03646C13.5751 6.61936 13.6503 6.12894 13.5325 5.65569C13.4747 5.42368 13.3737 5.20977 13.2366 5.02198C13.2838 4.99623 17.7548 2.58164 17.7653 2.57605C17.7671 2.5751 17.7689 2.57415 17.7707 2.57315C17.959 2.47028 18.1766 2.44564 18.3835 2.5038C18.5882 2.56132 18.7572 2.69301 18.8594 2.87461C18.9594 3.05253 18.9836 3.25841 18.9275 3.45443C18.8699 3.65546 18.7353 3.82256 18.5485 3.92505L18.5472 3.92579C18.547 3.92584 18.5469 3.92595 18.5467 3.92605L15.6093 5.5305C15.3537 5.67015 15.2595 5.99072 15.3991 6.24659C15.4948 6.42212 15.6757 6.52161 15.8624 6.52161C15.9478 6.52161 16.0344 6.50076 16.1146 6.45696L19.5648 4.57237C19.7531 4.46956 19.9708 4.44491 20.1775 4.50302C20.3874 4.56197 20.5589 4.69803 20.6603 4.88619C20.8589 5.25442 20.704 5.72688 20.3162 5.93873L16.8911 7.8096C16.6355 7.9493 16.5414 8.26998 16.681 8.52574C16.7768 8.70128 16.9576 8.80071 17.1443 8.80071C17.2297 8.80071 17.3163 8.77987 17.3966 8.73606L20.5937 6.98896C20.7809 6.88815 20.9967 6.86424 21.2022 6.92193C21.4069 6.97946 21.576 7.11114 21.6781 7.29275C21.7781 7.47061 21.8023 7.67649 21.7462 7.87251C21.6884 8.07402 21.5534 8.24143 21.3687 8.34234L18.1408 10.0021C17.8814 10.1347 17.7786 10.4527 17.9112 10.7122C18.0045 10.8949 18.1894 10.9999 18.3812 10.9999C18.4619 10.9999 18.5439 10.9813 18.6207 10.942L21.5462 9.44545C21.7321 9.34712 21.9457 9.32422 22.149 9.38137C22.3538 9.4389 22.5228 9.57058 22.6249 9.75219C22.725 9.93005 22.7492 10.1359 22.6931 10.332C22.6358 10.532 22.5022 10.6985 22.3167 10.8012L14.4815 14.8874C14.4785 14.8889 14.4755 14.8905 14.4725 14.8922C12.9875 15.7036 11.4148 15.7418 10.0277 15.0046ZM16.1923 15.1856L19.7895 13.3096L18.8804 14.7967C18.0333 15.2088 17.1097 15.3391 16.1923 15.1856Z" stroke="#6C1515" stroke-width="0.25"/>
</svg>
